<svg xmlns="http://www.w3.org/2000/svg" id="Componente_1_1" width="92" height="119" viewBox="0 0 92 119">
    <defs>
        <style>
            .cls-1{fill:#ffed00}.cls-2{fill:#efe324}.cls-3{fill:#305da7}.cls-4{fill:#fff}
        </style>
    </defs>
    <g id="_1" transform="translate(-282.903 -270.851)">
        <g id="Grupo_50">
            <path id="Trazado_37" d="M306.568 389.851v-84.038H282.9v-15.8h2.182c15.777 0 25.512-6.05 27.861-19.162h17.792v119z" class="cls-1"/>
        </g>
        <g id="Grupo_51">
            <path id="Trazado_38" d="M297.461 377.763a1.693 1.693 0 1 1-1.691-1.695 1.695 1.695 0 0 1 1.691 1.695z" class="cls-2"/>
            <path id="Trazado_39" d="M344.588 343.776l-15.932-.431v-9.283l17.471.007c-.456 3.468-.96 6.787-1.539 9.707z" class="cls-3"/>
            <path id="Trazado_40" d="M325.883 343.271l-15.64-.423v-8.794l15.64.006z" class="cls-3"/>
            <path id="Trazado_41" d="M311.1 323.86l16.482-.524v7.948l-16.482-.007z" class="cls-3"/>
            <path id="Trazado_42" d="M334.744 378.087a1.692 1.692 0 1 1-1.691-1.7 1.7 1.7 0 0 1 1.691 1.7z" class="cls-2"/>
            <path id="Trazado_43" d="M307.47 342.773l-16.239-.439v-8.287l16.239.007z" class="cls-3"/>
            <path id="Trazado_44" d="M340.26 354.342c-1.712.806-6.8.8-13.088.386v-8.644l16.813.454c-.992 4.146-2.195 7.084-3.725 7.804z" class="cls-3"/>
            <path id="Trazado_45" d="M324.4 354.524c-4.866-.391-10.208-.975-15.161-1.6v-7.327l15.162.41z" class="cls-3"/>
            <path id="Trazado_46" d="M371.092 314.884c-1.361.054-3.082.082-5.053.082-2.02 0-3.9-.033-5.105-.06l.02-2.968c2.088-.04 6.235-.109 9.772-.108a1.411 1.411 0 0 1 1.4 1.5c.005.06.051 1.462-1.034 1.554z" class="cls-3"/>
            <path id="Trazado_47" d="M346.488 331.292l-16.135-.007v-8.037l17.147-.548-.045.385c-.311 2.707-.628 5.481-.967 8.207z" class="cls-3"/>
            <path id="Trazado_48" d="M306.464 352.57c-4.2-.554-7.962-1.113-10.686-1.569-3.724-.623-4.46-4.267-4.549-4.809v-1.079l15.237.412z" class="cls-3"/>
            <path id="Trazado_49" d="M291.239 324.491l17.089-.543v7.328l-17.089-.007z" class="cls-3"/>
            <path id="Trazado_50" d="M334.026 369.867h-1.941v4.73a3.633 3.633 0 1 0 1.941 0v-2.115a5.645 5.645 0 1 1-4.359 1.037l-1.164-1.556a7.6 7.6 0 1 0 5.524-1.445zm-.974 6.525a1.7 1.7 0 1 1-1.693 1.695 1.694 1.694 0 0 1 1.694-1.696z" class="cls-4"/>
            <path id="Trazado_51" d="M296.743 369.852H294.8v4.422a3.632 3.632 0 1 0 1.94 0v-2.115a5.644 5.644 0 1 1-4.359 1.036l-1.164-1.554a7.6 7.6 0 1 0 5.524-1.446zm-.973 6.217a1.695 1.695 0 1 1-1.694 1.694 1.695 1.695 0 0 1 1.694-1.694z" class="cls-4"/>
            <path id="Trazado_52" d="M335.115 357.754a4.34 4.34 0 0 1 .958 2.165 4.564 4.564 0 0 1-3.1 4.708 14.5 14.5 0 0 1-5.618.835c-.84 0-1.778-.022-2.86-.047-.769-.018-1.621-.038-2.573-.053l.046-2.777c.959.016 1.816.036 2.591.054 3.891.09 5.5.128 7.425-.606a1.817 1.817 0 0 0 1.333-1.765c-.116-.913-1.453-2.116-4.841-2.5l.018-.165c1.914.1 3.727.164 5.372.165q.644-.002 1.249-.014z" class="cls-4"/>
            <path id="Trazado_53" d="M341.761 356.681v6.98c0 2.5-1.554 6.209-5.829 6.207h-3.844l-35.342-.014h-8.927l-.287-.14a4.137 4.137 0 0 1-2.257-2.934c-.164-1.333.5-2.637 1.975-3.878l.387-.326 30.032.012v2.777l-28.992-.012c-.505.5-.672.879-.649 1.085a1.175 1.175 0 0 0 .5.639l47.4.02c2.87 0 3.048-2.864 3.055-3.431v-6.18a8.973 8.973 0 0 0 2.454-.625c.112-.061.218-.119.324-.18z" class="cls-4"/>
            <path id="Trazado_54" d="M358.156 315.6l.018-2.778c-2.577.006-5.158.172-7.069 2.143a21.606 21.606 0 0 0-2.955 4.941l-59.684 1.9v24.657a8.472 8.472 0 0 0 6.855 7.281c.272.045 19.381 3.11 33.178 3.861 1.914.1 3.727.164 5.372.165q.639 0 1.245-.012a32.808 32.808 0 0 0 3.872-.274 8.973 8.973 0 0 0 2.454-.625c.109-.051.214-.112.32-.173 4.72-2.7 6.3-14.485 8.449-33.277l.2-1.773a22.1 22.1 0 0 1 2.689-4.736c1.075-1.117 2.667-1.291 5.056-1.3zm-30.981 30.487l16.813.454c-.995 4.146-2.2 7.084-3.728 7.8-1.712.806-6.8.8-13.088.386zm-35.945-.972l15.237.412v7.046c-4.2-.554-7.962-1.113-10.686-1.569-3.724-.623-4.46-4.267-4.549-4.809zm0-11.066l16.24.007v8.72l-16.239-.44zm17.09-2.77l-17.089-.007v-6.778l17.089-.543zm.916 14.323l15.162.41v8.515c-4.866-.391-10.208-.975-15.161-1.6zm1.007-11.545l15.64.007v9.209l-15.639-.423zm17.333-2.77l-16.482-.007v-7.417l16.482-.523zm1.08 2.778l17.471.007c-.46 3.468-.965 6.787-1.543 9.707l-15.932-.431zM347.5 322.7l-.045.385c-.309 2.7-.626 5.477-.966 8.2l-16.135-.007v-8.037z" class="cls-4"/>
            <path id="Trazado_55" d="M374.9 313.215a4.161 4.161 0 0 0-4.172-4.162c-4.967 0-11.121.135-11.182.137l-1.346.03-.024 3.6-.018 2.778-.014 2.008 1.353.042c.031 0 3.086.093 6.542.094 2.009 0 3.768-.029 5.227-.088a4.028 4.028 0 0 0 3.634-4.439zm-3.807 1.669c-1.361.054-3.082.082-5.053.082-2.02 0-3.9-.033-5.105-.06l.02-2.968c2.088-.04 6.235-.109 9.772-.108a1.411 1.411 0 0 1 1.4 1.5c.004.06.05 1.462-1.035 1.554z" class="cls-1"/>
        </g>
        <g id="Grupo_52">
            <path id="Trazado_56" d="M330.721 360.345v11.393s-6.717-.491-6.985 5.153c-.416 8.766 5.279 8.766 5.279 8.766l1.706 4.195h-24.17v-30.09" class="cls-1"/>
        </g>
    </g>
</svg>
