<?xml version="1.0" encoding="utf-8"?>
<!-- Generator: Adobe Illustrator 25.2.3, SVG Export Plug-In . SVG Version: 6.00 Build 0)  -->
<svg version="1.1" id="Capa_1" xmlns="http://www.w3.org/2000/svg" xmlns:xlink="http://www.w3.org/1999/xlink" x="0px" y="0px"
	 viewBox="0 0 204.4 204.4" style="enable-background:new 0 0 204.4 204.4;" xml:space="preserve">
<style type="text/css">
	.st0{fill:#FFFFFF;}
	.st1{fill:none;stroke:#F4E813;stroke-width:4;stroke-miterlimit:10;}
</style>
<g>
	<path class="st0" d="M107.4,99.6c1.3-0.3,2.1-0.9,2.3-1.9c0.3-1.4-1.3-2-3.7-2c-2.7,0-5.5,0.2-6.5,3.5H88.8
		c2.6-8.5,11-9.7,17.3-9.7c8.2,0,15.6,1.4,14.1,8.3c-1,4.7-6.3,6.6-10,7.3l-9.4,1.7c-2.2,0.4-3.5,1-4.3,1.9h20.8l-1.3,6.2H84.6
		c2.2-9.5,8.9-12.4,15.1-13.7L107.4,99.6z"/>
</g>
<circle class="st1" cx="102.5" cy="102.1" r="25"/>
</svg>
