<svg xmlns="http://www.w3.org/2000/svg" width="114" height="118" viewBox="0 0 114 118">
    <defs>
        <style>
            .cls-1{fill:#efe324}.cls-2{fill:#305da7}.cls-3{fill:#ffed00}.cls-4{fill:#fff}
        </style>
    </defs>
    <g id="_2" transform="translate(-854.613 -273.063)">
        <g id="Grupo_266">
            <path id="Trazado_57" d="M927.237 391.063h-72.624c0-21 8.494-35.5 25.983-51.666l9.659-9c10.494-9.5 12.327-14.833 12.327-27 0-9.833-4.164-14.666-11.658-14.666-11.994 0-13.158 10.5-13.328 23h-22.983v-4.5c0-21.832 11.491-34.166 36.644-34.166 23.652 0 35.31 11.833 35.31 32.168 0 15.333-4.83 25.332-18.32 37.5l-13.324 12.332c-7 6.334-11 12.833-12.161 17.333h44.474z" class="cls-1"/>
            <g id="Grupo_54">
                <path id="Rectángulo_13" d="M0 0H10.474V5.417H0z" class="cls-1" transform="translate(911.602 331.316)"/>
                <path id="Trazado_58" d="M892.042 365.057H963.127l.031 1.033v-1.033c3 0 3.39-1.56 3.39-2.918v-5.708H888.62v5.7a2.934 2.934 0 0 0 .748 2.064 3.66 3.66 0 0 0 2.674.862zm30.424-5.9h10.049v2.585h-10.049z" class="cls-2"/>
                <path id="Trazado_59" d="M906.2 324.314v17.407h30.455l-2.186-9.154 8.844 2.01v-10.263zm17.169 13.711H910.31v-8h13.058z" class="cls-2"/>
                <path id="Rectángulo_14" d="M0 0H37.113V4.933H0z" class="cls-2" transform="translate(906.199 317.314)"/>
                <path id="Trazado_60" d="M921.72 367.123c0 3.346-.153 6.892-1.781 9.09h15.972c-1.675-2.31-1.862-6.112-1.881-9.09z" class="cls-2"/>
                <path id="Trazado_61" d="M908.108 380.238a2.1 2.1 0 0 0 2.21 1.958h35.49a1.972 1.972 0 1 0 0-3.915h-35.49a2.1 2.1 0 0 0-2.21 1.957z" class="cls-2"/>
                <path id="Trazado_62" d="M961.608 311.645a2.078 2.078 0 0 0-.246-.016H894.908c-.75 0-.911.14-.913.142s-.091.109-.089.688v41.905h67.813v-41.9a1.86 1.86 0 0 0-.111-.819zm-13.6 39.6l-3.824-4.585-5.376 4.066-1.658-6.939h-33.017v-28.54h41.245v19.8l7.2 1.636-3.525 5.076 3.863 4.487z" class="cls-2"/>
                <path id="Trazado_63" d="M949.133 338.019l-11.884-2.7 2.831 11.853 4.428-3.348 3.624 4.345 1.978-2.016-3.667-4.261z" class="cls-3"/>
                <path id="Trazado_64" d="M888.62 354.364h3.217v-41.9a2.911 2.911 0 0 1 .692-2.155 3.3 3.3 0 0 1 2.376-.75h66.453a2.288 2.288 0 0 1 1.707.619 3.125 3.125 0 0 1 .713 2.281v41.9h2.765c-.005-14.744-.027-42.323-.125-45.286-.035-1.1-.512-2.952-3.3-2.952h-5.046c-14.68-.007-56.2-.025-66.031 0-3.044 0-3.428 1.56-3.428 2.918v5.36c.006 9.885.007 29.169.007 39.965z" class="cls-2"/>
                <path id="Trazado_65" d="M886.551 362.122a4.915 4.915 0 0 0 1.351 3.53 5.609 5.609 0 0 0 4.14 1.472h27.612c-.007 3.146-.149 6.69-1.678 8.224a3.181 3.181 0 0 1-2.379.866h-5.279a4.032 4.032 0 1 0 0 8.049h35.49a4.032 4.032 0 1 0 0-8.049h-5.659c-3.5 0-4-4.185-4.049-9.09h27.058c3.467 0 5.456-1.817 5.456-4.985 0-8.225-.007-49.439-.128-53.129-.1-3.009-2.2-4.952-5.365-4.952h-5.045c-14.68-.006-56.133-.025-66.086 0-3.457 0-5.439 1.817-5.439 4.985v5.357c.002 12.718.005 46.489 0 47.722zm59.257 16.159a1.972 1.972 0 1 1 0 3.915h-35.49a1.972 1.972 0 1 1 0-3.915zm-25.869-2.067c1.628-2.2 1.776-5.744 1.781-9.09h12.311c.019 2.979.206 6.78 1.881 9.09zm-27.894-70.088c9.829-.026 51.351-.008 66.031 0h5.046c2.788 0 3.265 1.849 3.3 2.952.1 2.963.12 30.543.125 45.286H888.62v-45.321c-.003-1.358.38-2.918 3.425-2.918zm-3.425 50.306h77.927v5.708c0 1.359-.385 2.918-3.39 2.918v1.033l-.031-1.033H892.041a3.66 3.66 0 0 1-2.676-.864 2.934 2.934 0 0 1-.748-2.064l.003-5.699z" class="cls-4"/>
                <path id="Trazado_66" d="M963.068 310.181a2.288 2.288 0 0 0-1.707-.619h-66.453a3.3 3.3 0 0 0-2.376.75 2.911 2.911 0 0 0-.692 2.155v41.9h2.06v-41.905c0-.58.089-.687.089-.688s.163-.142.913-.142h66.454a2.078 2.078 0 0 1 .246.016 1.86 1.86 0 0 1 .107.817v41.9h2.066v-41.9a3.125 3.125 0 0 0-.707-2.284z" class="cls-4"/>
                <path id="Rectángulo_15" d="M0 0H10.049V2.585H0z" class="cls-3" transform="translate(922.466 359.154)"/>
                <path id="Trazado_67" d="M906.2 341.721v-17.407h37.113v10.263l2.066.469v-19.8h-41.246v28.542h33.015l-.494-2.068zm0-24.407h37.113v4.933H906.2z" class="cls-4"/>
                <path id="Trazado_68" d="M952.579 336.682l-7.2-1.636-2.066-.469-8.844-2.01 2.186 9.154.494 2.068 1.658 6.939 5.376-4.066 3.824 4.585 4.909-5-3.863-4.487zm-2.469 9.471l-1.977 2.016-3.625-4.345-4.428 3.347-2.831-11.853 11.884 2.7-2.69 3.873z" class="cls-4"/>
                <path id="Trazado_69" d="M910.31 338.025h13.058v-8H910.31zm1.292-6.709h10.474v5.416H911.6z" class="cls-3"/>
            </g>
            <path id="Trazado_70" d="M854.613 391.063c0-21 8.494-35.5 25.983-51.666l9.659-9c10.494-9.5 12.327-14.833 12.327-27 0-9.833-4.164-14.666-11.658-14.666-11.994 0-22.7-4.084-22.872 8.416l-4.214-.607 4.7-3.135c0-12.113-2.429-20.341 22.723-20.341 23.652 0 35.31 11.833 35.31 32.168 0 15.333-4.83 25.332-18.32 37.5l-13.324 12.332c-7 6.334-11 12.833-12.161 17.333" class="cls-3"/>
        </g>
    </g>
</svg>
