<?xml version="1.0" encoding="utf-8"?>
<!-- Generator: Adobe Illustrator 25.2.3, SVG Export Plug-In . SVG Version: 6.00 Build 0)  -->
<svg version="1.1" id="Capa_1" xmlns="http://www.w3.org/2000/svg" xmlns:xlink="http://www.w3.org/1999/xlink" x="0px" y="0px"
	 viewBox="0 0 204.4 204.4" style="enable-background:new 0 0 204.4 204.4;" xml:space="preserve">
<style type="text/css">
	.st0{fill:#FFFFFF;}
</style>
<g>
	<path class="st0" d="M111.7,95.6c3-0.6,4.9-2.1,5.4-4.5c0.8-3.3-3.1-4.7-8.5-4.7c-6.4,0-12.9,0.6-15.1,8.1H68.3
		c6-19.9,25.7-22.6,40.5-22.6c19.1,0,36.3,3.3,32.9,19.5c-2.3,11-14.7,15.4-23.4,17l-21.8,3.9c-5.2,0.9-8.1,2.2-10,4.4H135
		l-3.1,14.5H58.5c5.2-22.2,20.7-29,35.3-32L111.7,95.6z"/>
</g>
</svg>
