<?xml version="1.0" encoding="utf-8"?>
<!-- Generator: Adobe Illustrator 25.2.3, SVG Export Plug-In . SVG Version: 6.00 Build 0)  -->
<svg version="1.1" id="Capa_1" xmlns="http://www.w3.org/2000/svg" xmlns:xlink="http://www.w3.org/1999/xlink" x="0px" y="0px"
	 viewBox="0 0 204.4 204.4" style="enable-background:new 0 0 204.4 204.4;" xml:space="preserve">
<style type="text/css">
	.st0{fill:none;stroke:#F4E813;stroke-width:4;stroke-miterlimit:10;}
	.st1{fill:#FFFFFF;}
</style>
<circle class="st0" cx="102.2" cy="102.3" r="25"/>
<g>
	<path class="st1" d="M98,98.9h7c2.2,0,2.9-0.8,3.1-1.7c0.2-1.1-0.2-2-4.1-2c-3.4,0-3.9,0.2-4.8,1.3H88.6c1.7-5.5,7.6-7.3,16.7-7.3
		c10.9,0,14.7,2.1,13.6,7.1c-0.4,2-1.5,4.1-5.4,5v0.1c3,0.7,4.5,2.6,3.8,5.8c-1,4.7-5.3,8.1-16.9,8.1c-7.6,0-16.1-0.5-14.8-8.9h10.3
		c-0.1,0.9,0.2,1.6,0.9,2c0.8,0.5,2.1,0.7,4.2,0.7c4.6,0,5.5-1.3,5.7-2.4c0.3-1.6-0.9-2-3.5-2h-6.5L98,98.9z"/>
</g>
</svg>
