<svg xmlns="http://www.w3.org/2000/svg" width="178.001" height="120" viewBox="0 0 178.001 120">
    <defs>
        <style>
            .cls-1{fill:#ffed00}.cls-2{fill:#d6d02e}.cls-3{fill:#305da7}
        </style>
    </defs>
    <g id="_3" transform="translate(-1406.927 -270.825)">
        <g id="Grupo_268">
            <g id="Grupo_56">
                <path id="Trazado_71" d="M1429.7 354.152c.33 13.606 2.64 21.075 13.035 21.075 11.549 0 13.035-8.628 13.035-18.917 0-10.455-2.31-20.081-15.345-20.081h-7.925v-15.6h7.757c9.9 0 13.529-8.96 13.529-18.587 0-10.951-3.632-15.431-11.385-15.431-10.231 0-12.046 7.966-12.046 19.084h-21.78c0-23.067 12.207-34.685 34.32-34.685 21.12 0 33.661 9.461 33.661 30.2 0 14.1-6.765 23.4-17.822 25.887v.332c15.015 2.323 20.791 12.943 20.791 27.712 0 15.767-6.435 35.679-38.774 35.679-22.607 0-33.827-13.771-33.827-36.176v-.5z" class="cls-1"/>
            </g>
            <g id="Grupo_267">
                <g id="Grupo_57">
                    <path id="Trazado_72" d="M1558.161 379.97a6.711 6.711 0 0 1-.685-.054 6.436 6.436 0 0 0 3.5 4.79l.1.046a2.988 2.988 0 0 0 1.41.344 2.563 2.563 0 0 0 1.4-.328l.115-.057c1.185-.586 2.842-3.15 3.388-4.788-.4.034-.79.047-1.166.047z" class="cls-2"/>
                    <path id="Trazado_73" d="M1536.821 377.977c3.407 0 11.018-1.454 14.975-2.5.013 0 .026-.011.039-.015-.01-.025-.024-.048-.033-.074l.93-.327a12.322 12.322 0 0 0 3.937-4.181 5.28 5.28 0 0 0 .755-1.858h-.005c-3.532.592-16.359 4.913-20.98 8.943.113.009.24.012.382.012z" class="cls-3"/>
                    <path id="Trazado_74" d="M1548.068 369.994c-4.043-2.688-17.445-10.394-38.587-10.688-21.3-.285-35.911 7.706-40.272 10.438.879.342 1.766.7 2.646 1.077 2.118-1 18.643-8.595 23.881-3.9 1.551 1.391 1.977 3.557 1.288 6.442h22.008a6.18 6.18 0 0 1-.017-3.289 6.366 6.366 0 0 1 3.527-3.879c5.366-2.7 20.1 4.254 22.038 5.189 1.164-.492 2.338-.959 3.488-1.39z" class="cls-3"/>
                    <path id="Trazado_75" d="M1557.746 366.714l-.117.491c.043 0 .085.006.127.01-.004-.166-.008-.332-.01-.501z" class="cls-3"/>
                    <path id="Trazado_76" d="M1547.964 344.229a4.01 4.01 0 0 0 2.163 2.8 1.961 1.961 0 0 0 .933.244 1.542 1.542 0 0 0 .851-.2 6.545 6.545 0 0 0 2.149-2.877 5.468 5.468 0 0 1-.6.035z" class="cls-2"/>
                    <path id="Trazado_77" d="M1552 335.269c.553 1.5 4.771 6.327 6.815 7.036 1.8.624 14.839 3.091 19.383 3.217-5.926-3.079-22.41-10.254-26.152-10.254z" class="cls-3"/>
                    <path id="Trazado_78" d="M1495.388 375.439a1.638 1.638 0 0 0 0 3.192h25.428a1.638 1.638 0 0 0 0-3.192z" class="cls-2"/>
                    <path id="Trazado_79" d="M1554.069 376.37a5.166 5.166 0 0 0 4.093 2.045h8.059c3.118 0 5.194-.9 5.2-5.3 0-2.185-.411-3.691-1.223-4.474-.851-.82-2.137-.889-3.611-.841-.184 2.351-.976 4.3-4.391 4.3a4.418 4.418 0 0 1-3.286-1.08c-.064-.065-.112-.14-.17-.21a14.275 14.275 0 0 1-4.671 5.56z" class="cls-3"/>
                    <path id="Trazado_80" d="M1444.725 372.881c0 4.4 2.078 5.3 5.2 5.3h8.059a5.169 5.169 0 0 0 4.323-2.39 14.292 14.292 0 0 1-4.613-5.327c-.582 1.125-1.686 1.875-3.8 1.875a4.409 4.409 0 0 1-3.285-1.08 5.3 5.3 0 0 1-1.149-3.7c-1.435-.041-2.678.041-3.511.844-.812.787-1.224 2.297-1.224 4.478z" class="cls-3"/>
                    <path id="Trazado_81" d="M1518.087 380.7a.694.694 0 0 0-.086.323.71.71 0 0 0 .707.712h3.7a.711.711 0 0 0 0-1.422h-.127a3.053 3.053 0 0 1-1.463.388z" class="cls-3"/>
                    <path id="Trazado_82" d="M1573.69 363.135c.962-.384 7.431-5.7 9.028-7.28-3.228 1.44-10.791 5.009-14.6 8.392 1.53-.2 3.7-.691 4.878-.957z" class="cls-3"/>
                    <path id="Trazado_83" d="M1449.92 379.739c-.325 0-.662-.011-1.005-.036a6.5 6.5 0 0 0 3.525 4.937l.1.045a2.971 2.971 0 0 0 1.413.345 2.55 2.55 0 0 0 1.4-.327l.116-.058c1.233-.609 2.975-3.358 3.448-4.981a6.645 6.645 0 0 1-.932.075z" class="cls-2"/>
                    <path id="Trazado_84" d="M1495.388 380.7a3.048 3.048 0 0 1-1.462-.388h-.609a.711.711 0 0 0 0 1.422h3.7a.71.71 0 0 0 .707-.712.693.693 0 0 0-.086-.323z" class="cls-3"/>
                    <path id="Trazado_85" d="M1464.493 374.854c3.956 1.043 11.567 2.5 14.974 2.5.135 0 .257 0 .366-.007-4.705-4.051-17.314-8.309-20.9-8.933l-.058.018a5.372 5.372 0 0 0 .749 1.829c1.095 1.893 3.176 4.148 4.869 4.593z" class="cls-3"/>
                    <path id="Trazado_86" d="M1559.216 368.626a2.443 2.443 0 0 1 .005.271 2.453 2.453 0 0 0 .6 1.2 3.247 3.247 0 0 0 2.374.7c3.026 0 3.16-1.691 3.16-5.21 0-2.824-1.447-5.209-3.16-5.209s-3.16 2.385-3.16 5.209v.3a21.355 21.355 0 0 0 .08 2.331 1.8 1.8 0 0 1 .101.408z" class="cls-2"/>
                    <path id="Trazado_87" d="M1472.4 338.374a3.676 3.676 0 0 0-3.349-3.591c-.048 1.821-.409 3.588-3.13 3.588a3.5 3.5 0 0 1-1.905-.459 26.8 26.8 0 0 1-3.329 3.623 3.855 3.855 0 0 0 1.814.47h6.131a3.706 3.706 0 0 0 3.768-3.631z" class="cls-3"/>
                    <path id="Trazado_88" d="M1462.794 343.561a4.072 4.072 0 0 0 2.2 2.974 1.97 1.97 0 0 0 .933.244 1.536 1.536 0 0 0 .852-.2 6.617 6.617 0 0 0 2.2-3.037c-.118.008-.236.018-.357.018z" class="cls-2"/>
                    <path id="Trazado_89" d="M1464.131 335.268c-3.742 0-20.226 7.175-26.151 10.254 4.543-.126 17.583-2.592 19.383-3.217a6.982 6.982 0 0 0 1.941-1.268l.334-.3.006.006a21.446 21.446 0 0 0 4.533-5.474z" class="cls-3"/>
                    <path id="Trazado_90" d="M1464.131 333.971a2.37 2.37 0 0 1 .759.1.939.939 0 0 1 .635.922 4.582 4.582 0 0 1-.911 2.071 2.638 2.638 0 0 0 1.3.264c1.917 0 2.091-.948 2.1-3.047a.8.8 0 0 1-.467-.527.833.833 0 0 1 .344-.9c-.291-1.317-1.075-2.3-1.98-2.3-1.142 0-2.106 1.551-2.106 3.385v.039c.117.003.229-.007.326-.007z" class="cls-2"/>
                    <path id="Trazado_91" d="M1509.5 357.752c23.473.326 37.665 9.658 40.357 11.592 1.822-.641 3.508-1.17 4.88-1.546-8.275-3.112-23.527-12.208-24.95-13.51a1.545 1.545 0 0 1-.48-1.411c.116-.662.419-2.386 16.12-9a5.268 5.268 0 0 1-3.114-3.124c-2.171.992-7.5 2.731-18.214 2.785a2.684 2.684 0 0 1-.012 1.029c-.951 4.536-7.525 7.7-15.989 7.7s-15.033-3.168-15.987-7.7a2.433 2.433 0 0 1-.027-.79c-.461.024-.921.052-1.388.052-7 0-14.476-2.554-17.131-3.551a5.279 5.279 0 0 1-3.2 2.986c17.3 8.13 17.092 8.971 16.8 10.132-.494 1.99-16.291 10.3-25.2 13.887 1.541.437 3.425 1.045 5.43 1.776 2.871-1.927 18.5-11.664 42.105-11.307z" class="cls-3"/>
                    <path id="Trazado_92" d="M1443.347 363.3c1.175.266 3.347.76 4.878.957-3.823-3.39-11.371-6.953-14.594-8.392 1.6 1.583 8.069 6.9 9.085 7.3z" class="cls-3"/>
                    <path id="Trazado_93" d="M1453.893 371.046c3.026 0 3.16-1.691 3.16-5.21 0-2.824-1.447-5.21-3.16-5.21-1.42 0-2.656 1.643-3.037 3.813a1.092 1.092 0 0 1-.118 1.23c0 .055-.005.111-.005.167v.3c0 1.832 0 3.415.787 4.211a3.247 3.247 0 0 0 2.373.699z" class="cls-2"/>
                    <path id="Trazado_94" d="M1546.444 333.932c-4.528-2.214-13.734-4.324-16.162-4.857 1.642 1.041 9.835 4.629 10.811 4.7h.012c.583 0 1.434.066 2.418.141.743.056 1.541.116 2.278.155a5.213 5.213 0 0 1 .643-.139z" class="cls-3"/>
                    <path id="Trazado_95" d="M1547.324 342.673h6.132a3.835 3.835 0 0 0 2.386-.836 26.813 26.813 0 0 1-3.378-3.53 3.1 3.1 0 0 1-2.247.748c-2.739 0-3.088-1.789-3.132-3.621a3.622 3.622 0 1 0 .238 7.239z" class="cls-3"/>
                    <path id="Trazado_96" d="M1473.151 333.278c1.046-.018 1.965-.033 2.449 0 .963-.016 9.352-3.112 11.051-4.054-2.536.4-12.409 2.048-16.83 4.048.748.036 2.138.028 3.33.006z" class="cls-3"/>
                    <path id="Trazado_97" d="M1548.117 335.357c.037 1.833.3 2.661 2.1 2.661a1.966 1.966 0 0 0 1.631-.534 5.472 5.472 0 0 1-1.2-2.485.94.94 0 0 1 .634-.922 2.381 2.381 0 0 1 .76-.1c.071 0 .156.008.234.012-.194-1.537-1.059-2.736-2.063-2.736-.881 0-1.651.925-1.959 2.189.119.075.237.15.344.225.552.387.568.784.485 1.049-.12.393-.483.567-.966.641z" class="cls-2"/>
                    <path id="Trazado_98" d="M1508.229 347.074c7.928 0 13.253-2.5 13.253-4.837s-5.324-4.837-13.253-4.837-13.253 2.5-13.253 4.837 5.324 4.837 13.253 4.837z" class="cls-2"/>
                    <path id="Trazado_99" d="M1508.1 350.2c8.25 0 13.355-3.121 13.971-6.058a.662.662 0 0 0-.041-.384c-1.6 2.531-7.079 4.35-13.8 4.35-6.846 0-12.41-1.887-13.886-4.49a.637.637 0 0 0-.214.523c.618 2.939 5.724 6.059 13.97 6.059z" class="cls-2"/>
                    <path id="Trazado_100" fill="#fff" d="M1442.278 364.923l.671.151c1.263.286 3.343.758 4.958.974a4.894 4.894 0 0 0-3.028 1.238c-1.143 1.1-1.7 2.933-1.7 5.6 0 4.569 2.128 6.132 4.408 6.635a7.9 7.9 0 0 0 4.317 6.3l.087.041a4.274 4.274 0 0 0 1.96.466 3.781 3.781 0 0 0 1.974-.464l.106-.053c1.709-.845 4.026-4.439 4.27-6.507a6.763 6.763 0 0 0 3.388-2.81c.115.04.231.088.346.118 3.964 1.044 11.74 2.556 15.431 2.556 1.174 0 2.309-.119 2.672-.982a1.39 1.39 0 0 0-.423-1.563 25.4 25.4 0 0 0-6.733-4.369c6.677-2.889 16.3-5.842 19.038-3.393.9.81.987 2.407.269 4.729a3.655 3.655 0 0 0-2.232 3.448 3.9 3.9 0 0 0 .609 2.1 2 2 0 0 0 .649 3.894h3.7a2 2 0 0 0 2-2.007 1.922 1.922 0 0 0-.033-.323h17.765a1.968 1.968 0 0 0 1.963 2.329h3.7a2 2 0 0 0 1.007-3.729 3.864 3.864 0 0 0 .734-2.269 3.638 3.638 0 0 0-2.315-3.476 4.089 4.089 0 0 1-.339-2.777 3.933 3.933 0 0 1 2.2-2.267c2.887-1.45 11.687 1.565 17.774 4.283a25.786 25.786 0 0 0-6.894 4.449 1.387 1.387 0 0 0-.423 1.563c.363.862 1.5.981 2.671.981 3.691 0 11.467-1.511 15.43-2.555.142-.037.288-.095.432-.148a6.765 6.765 0 0 0 3.444 2.559 7.87 7.87 0 0 0 4.309 6.237l.09.042a4.263 4.263 0 0 0 1.955.465 3.784 3.784 0 0 0 1.976-.464l.106-.053c1.624-.8 3.792-4.085 4.215-6.184 2.193-.556 4.181-2.16 4.181-6.578 0-2.663-.555-4.493-1.7-5.6-1.32-1.273-3.211-1.325-4.624-1.278v-.112a4.11 4.11 0 0 0 .418.019 39 39 0 0 0 6.337-1.085l.675-.152c1.431-.31 9.692-7.349 10.4-8.3a1.743 1.743 0 0 0 .3-1.895 1.7 1.7 0 0 0-2.091-.822c-3.669 1.606-12.295 5.624-16.293 9.507-.6-2.534-2.229-4.309-4.193-4.309-2.5 0-4.45 2.857-4.45 6.5V366.05c-6.191-1.582-21.283-10.361-25.3-13.023 2.235-1.513 8.864-4.619 14.918-7.154a4.921 4.921 0 0 0 2.337 2.233 2.948 2.948 0 0 0 1.359.323 2.755 2.755 0 0 0 1.441-.358 7.551 7.551 0 0 0 2.858-4.2 5.322 5.322 0 0 0 1.741-1.06 5.834 5.834 0 0 0 1.295.713c1.93.669 15.723 3.293 20.143 3.293.822 0 1.713-.058 1.887-.758.18-.724-.663-1.176-1.068-1.395-4.576-2.459-20.175-9.475-26.039-10.553-.178-2.224-1.468-3.905-3.1-3.905-1.323 0-2.43 1.1-2.9 2.7-5.192-2.662-16.831-5.117-17.369-5.23l-.132-.027-.131.028a1.185 1.185 0 0 0-.441 2.241c1.027.868 10.561 5.154 11.919 5.153.465 0 1.338.068 2.262.138l.3.022a5.151 5.151 0 0 0-1.623 2.849l-.069-.1c-.046.031-4.724 3.163-19.867 2.956-1.4-2.65-7.017-4.579-13.94-4.579-6.981 0-12.641 1.96-13.98 4.644l-.008-.048c-7.738 1.347-18.344-2.549-20.357-3.33a5.136 5.136 0 0 0-1.633-3.042c.312 0 .622-.009.922-.015.988-.017 1.767-.036 2.413 0 1.425 0 11.006-3.661 12.052-4.444a1.186 1.186 0 0 0-.309-2.265l-.13-.035-.133.019c-.564.084-13.225 1.978-18.23 4.463-.453-1.646-1.57-2.789-2.917-2.789-1.76 0-3.139 1.942-3.139 4.421v.182c-5.924 1.125-21.406 8.091-25.962 10.539-.4.219-1.249.671-1.068 1.395.174.7 1.066.758 1.888.758 4.42 0 18.212-2.623 20.143-3.293a6.606 6.606 0 0 0 1.625-.941 5.375 5.375 0 0 0 2.2.891 5.37 5.37 0 0 0 2.973 4.144 2.956 2.956 0 0 0 1.355.322 2.76 2.76 0 0 0 1.442-.358 5.784 5.784 0 0 0 1.875-1.984c5.875 2.763 12.248 5.966 14.677 7.468-3.9 2.627-17.782 10.314-25.583 12.814v-.048c0-3.647-1.954-6.5-4.449-6.5-1.862 0-3.421 1.592-4.094 3.917-4.069-3.831-12.51-7.76-16.129-9.344a1.7 1.7 0 0 0-2.091.822 1.739 1.739 0 0 0 .3 1.895c.711.958 8.972 7.997 10.402 8.308zm140.44-9.068c-1.6 1.581-8.066 6.9-9.028 7.28l-.693.155c-1.174.266-3.347.76-4.878.957 3.808-3.383 11.371-6.947 14.599-8.392zm-127.255 28.79l-.116.058a2.55 2.55 0 0 1-1.4.327 2.971 2.971 0 0 1-1.413-.345l-.1-.045a6.5 6.5 0 0 1-3.525-4.937c.343.025.681.036 1.005.036h8.059a6.645 6.645 0 0 0 .932-.075c-.466 1.623-2.205 4.372-3.442 4.981zm41.552-2.908h-3.7a.711.711 0 0 1 0-1.422h.609a3.048 3.048 0 0 0 1.462.388h2.248a.693.693 0 0 1 .086.323.71.71 0 0 1-.704.712zm25.391-1.422a.711.711 0 0 1 0 1.422h-3.7a.71.71 0 0 1-.707-.712.694.694 0 0 1 .086-.323h2.729a3.053 3.053 0 0 0 1.463-.388zm-.321-3.281a1.463 1.463 0 0 1-1.27 1.6h-25.428a1.638 1.638 0 0 1 0-3.192h25.428a1.464 1.464 0 0 1 1.271 1.593zm.455-10.837a6.366 6.366 0 0 0-3.527 3.879 6.18 6.18 0 0 0 .017 3.289h-22.008c.69-2.885.264-5.051-1.288-6.442-5.238-4.7-21.764 2.9-23.881 3.9-.88-.376-1.767-.736-2.646-1.077 4.36-2.732 18.971-10.724 40.272-10.438 21.143.294 34.544 8 38.587 10.688-1.149.431-2.324.9-3.489 1.393-1.932-.937-16.671-7.889-22.036-5.189zm41.46 18.514l-.115.057a2.563 2.563 0 0 1-1.4.328 2.988 2.988 0 0 1-1.41-.344l-.1-.046a6.436 6.436 0 0 1-3.5-4.79 6.711 6.711 0 0 0 .685.054h8.059c.376 0 .768-.013 1.166-.047-.545 1.638-2.202 4.202-3.385 4.788zm-4.966-19.118c0-2.824 1.447-5.209 3.16-5.209s3.16 2.385 3.16 5.209c0 3.518-.134 5.21-3.16 5.21a3.247 3.247 0 0 1-2.374-.7 2.453 2.453 0 0 1-.6-1.2 2.443 2.443 0 0 0-.005-.271 1.8 1.8 0 0 0-.1-.405 21.355 21.355 0 0 1-.08-2.331zm-.126 5.424a4.418 4.418 0 0 0 3.286 1.08c3.414 0 4.206-1.949 4.391-4.3 1.474-.048 2.76.02 3.611.841.812.783 1.223 2.289 1.223 4.474 0 4.4-2.078 5.3-5.2 5.3h-8.059a5.166 5.166 0 0 1-4.093-2.045 14.275 14.275 0 0 0 4.667-5.562c.06.072.108.148.172.212zm-1.16-4.3c0 .169.006.336.01.5-.042 0-.084-.009-.127-.01zm-.321 2.313a5.28 5.28 0 0 1-.755 1.858 12.322 12.322 0 0 1-3.937 4.181l-.93.327c.009.025.023.048.033.074-.013 0-.026.012-.039.015-3.958 1.042-11.568 2.5-14.975 2.5-.142 0-.27 0-.382-.007 4.621-4.029 17.448-8.351 20.98-8.943zm-5.514-21.955a1.542 1.542 0 0 1-.851.2 1.961 1.961 0 0 1-.933-.244 4.01 4.01 0 0 1-2.163-2.8h5.492a5.468 5.468 0 0 0 .6-.035 6.545 6.545 0 0 1-2.147 2.876zm26.288-1.55c-4.544-.126-17.584-2.593-19.383-3.217-2.043-.709-6.262-5.536-6.815-7.036h.045c3.74-.004 20.225 7.17 26.152 10.249zm-29.6-11.86c-.107-.075-.224-.15-.344-.225.309-1.264 1.078-2.189 1.959-2.189 1 0 1.869 1.2 2.063 2.736-.078 0-.163-.012-.234-.012a2.381 2.381 0 0 0-.76.1.94.94 0 0 0-.634.922 5.472 5.472 0 0 0 1.2 2.485 1.966 1.966 0 0 1-1.631.534c-1.8 0-2.064-.827-2.1-2.661.485-.075.846-.248.97-.647.08-.263.064-.66-.49-1.047zm-5.078.258c-.984-.076-1.835-.141-2.418-.141h-.012c-.976-.074-9.17-3.662-10.811-4.7 2.428.533 11.634 2.643 16.162 4.857a5.213 5.213 0 0 0-.642.142c-.737-.046-1.536-.105-2.278-.162zm3.562 1.515c.044 1.832.393 3.621 3.132 3.621a3.1 3.1 0 0 0 2.247-.748 26.813 26.813 0 0 0 3.378 3.53 3.835 3.835 0 0 1-2.386.836h-6.132a3.622 3.622 0 1 1-.238-7.239zm-38.857 1.966c7.928 0 13.253 2.5 13.253 4.837s-5.324 4.837-13.253 4.837-13.253-2.5-13.253-4.837 5.325-4.841 13.254-4.841zm-13.886 6.219c1.476 2.6 7.04 4.49 13.886 4.49 6.722 0 12.205-1.819 13.8-4.35a.662.662 0 0 1 .041.384c-.616 2.937-5.721 6.058-13.971 6.058s-13.352-3.122-13.97-6.059a.637.637 0 0 1 .215-.526zm-7.692-14.391c-1.7.941-10.088 4.037-11.051 4.054-.484-.037-1.4-.022-2.449 0-1.193.019-2.583.03-3.33 0 4.423-2.009 14.296-3.656 16.831-4.057zm-20.733 1.334c.9 0 1.69.98 1.98 2.3a.833.833 0 0 0-.344.9.8.8 0 0 0 .467.527c-.013 2.1-.186 3.047-2.1 3.047a2.638 2.638 0 0 1-1.3-.264 4.582 4.582 0 0 0 .911-2.071.939.939 0 0 0-.635-.922 2.37 2.37 0 0 0-.759-.1c-.1 0-.208.009-.319.016v-.039c-.006-1.846.958-3.397 2.101-3.397zm-6.275 10.179l-.006-.006-.334.3a6.982 6.982 0 0 1-1.941 1.268c-1.8.625-14.84 3.091-19.383 3.217 5.926-3.079 22.409-10.254 26.151-10.254h.045a21.446 21.446 0 0 1-4.531 5.472zm7.139 5.837a1.536 1.536 0 0 1-.852.2 1.97 1.97 0 0 1-.933-.244 4.072 4.072 0 0 1-2.2-2.974h5.836c.12 0 .239-.01.357-.018a6.617 6.617 0 0 1-2.206 3.034zm1.847-4.575h-6.128a3.855 3.855 0 0 1-1.814-.47 26.8 26.8 0 0 0 3.329-3.623 3.5 3.5 0 0 0 1.905.459c2.721 0 3.082-1.767 3.13-3.588a3.618 3.618 0 0 1-.419 7.222zm18.543 11.4c.289-1.161.493-2-16.8-10.132a5.279 5.279 0 0 0 3.2-2.986c2.655 1 10.135 3.551 17.131 3.551.467 0 .927-.028 1.388-.052a2.433 2.433 0 0 0 .027.79c.954 4.535 7.528 7.7 15.987 7.7s15.037-3.168 15.989-7.7a2.684 2.684 0 0 0 .012-1.029c10.712-.053 16.044-1.793 18.214-2.785a5.268 5.268 0 0 0 3.114 3.124c-15.7 6.609-16 8.333-16.12 9a1.545 1.545 0 0 0 .48 1.411c1.423 1.3 16.675 10.4 24.95 13.51-1.371.376-3.058.905-4.88 1.546-2.692-1.934-16.884-11.267-40.357-11.592-23.607-.357-39.235 9.38-42.1 11.313-2-.731-3.888-1.338-5.43-1.776 8.905-3.594 24.702-11.909 25.196-13.9zm-28.244 15.01c3.59.624 16.2 4.882 20.9 8.933-.109 0-.23.007-.366.007-3.407 0-11.019-1.454-14.974-2.5-1.693-.445-3.774-2.7-4.874-4.595a5.372 5.372 0 0 1-.749-1.829zm-8.2-2.575c0-.056 0-.112.005-.167a1.092 1.092 0 0 0 .118-1.23c.381-2.17 1.617-3.813 3.037-3.813 1.713 0 3.16 2.386 3.16 5.21 0 3.518-.134 5.21-3.16 5.21a3.247 3.247 0 0 1-2.374-.7c-.791-.8-.789-2.379-.787-4.211zm-1.275 1.726a5.3 5.3 0 0 0 1.149 3.7 4.409 4.409 0 0 0 3.285 1.08c2.112 0 3.215-.75 3.8-1.875a14.292 14.292 0 0 0 4.613 5.327 5.169 5.169 0 0 1-4.323 2.39h-8.059c-3.117 0-5.193-.9-5.2-5.3 0-2.185.412-3.691 1.223-4.474.841-.816 2.083-.894 3.518-.853zm-1.233-3.3c-1.531-.2-3.7-.691-4.878-.957l-.631-.139c-1.015-.4-7.486-5.712-9.085-7.3 3.229 1.436 10.775 4.999 14.601 8.389z"/>
                </g>
                <g id="Grupo_58">
                    <path id="Trazado_101" d="M1455.544 353.419c-.425-9.353-3.385-17.377-15.286-17.377h-7.921v-15.6h7.756c9.9 0 13.529-8.961 13.529-18.587 0-10.951-3.631-15.432-11.384-15.432-10.231 0-12.047 7.967-12.047 19.084h-21.78c0-23.067 12.208-34.684 34.321-34.684 21.12 0 33.661 9.461 33.661 30.2 0 14.1-6.765 23.4-17.823 25.887v.332c15.015 2.322 20.792 12.943 20.792 27.712" class="cls-1"/>
                </g>
            </g>
        </g>
    </g>
</svg>
