<svg id="Capa_1" data-name="Capa 1" xmlns="http://www.w3.org/2000/svg" width="100" height="100" viewBox="0 0 100 100">
  <defs>
    <style>
      .cls-1 {
        fill: #253b81;
      }
    </style>
  </defs>
  <title>camera</title>
  <path class="cls-1" d="M50,40A15,15,0,1,0,65,55,15,15,0,0,0,50,40ZM90,25H78a4.45,4.45,0,0,1-4-2.85L71,12.84A4.46,4.46,0,0,0,67,10H33a4.45,4.45,0,0,0-3.95,2.85L26,22.15A4.45,4.45,0,0,1,22,25H10A10,10,0,0,0,0,35V80A10,10,0,0,0,10,90H90a10,10,0,0,0,10-10V35A10,10,0,0,0,90,25ZM50,80A25,25,0,1,1,75,55,25,25,0,0,1,50,80ZM86.5,42a3.5,3.5,0,1,1,3.5-3.5A3.5,3.5,0,0,1,86.5,42Z"/>
</svg>
