<svg id="Capa_1" data-name="Capa 1" xmlns="http://www.w3.org/2000/svg" width="100" height="80" viewBox="0 0 100 80">
  <defs>
    <style>
      .cls-1 {
        fill: #fff;
      }
    </style>
  </defs>
  <title>camera</title>
  <path class="cls-1" d="M50,30A15,15,0,1,0,65,45,15,15,0,0,0,50,30ZM90,15H78a4.45,4.45,0,0,1-4-2.85L71,2.84A4.46,4.46,0,0,0,67,0H33a4.45,4.45,0,0,0-3.95,2.85L26,12.15A4.45,4.45,0,0,1,22,15H10A10,10,0,0,0,0,25V70A10,10,0,0,0,10,80H90a10,10,0,0,0,10-10V25A10,10,0,0,0,90,15ZM50,70A25,25,0,1,1,75,45,25,25,0,0,1,50,70ZM86.5,32a3.5,3.5,0,1,1,3.5-3.5A3.5,3.5,0,0,1,86.5,32Z"/>
</svg>
