<svg id="Capa_1" data-name="Capa 1" xmlns="http://www.w3.org/2000/svg" width="100" height="100" viewBox="0 0 100 100">
  <defs>
    <style>
      .cls-1 {
        fill: #253b81;
      }
    </style>
  </defs>
  <title>cancel-blue</title>
  <path class="cls-1" d="M50,10A40,40,0,1,0,90,50,39.89,39.89,0,0,0,50,10Zm5.82,40.73L69.45,64.36A2,2,0,0,1,70,65.64a1.93,1.93,0,0,1-.55,1.27l-2.54,2.54a1.93,1.93,0,0,1-1.27.55,1.65,1.65,0,0,1-1.28-.55L50.73,55.82a.88.88,0,0,0-1.28,0L35.82,69.45a2,2,0,0,1-1.27.55,1.65,1.65,0,0,1-1.28-.55l-2.54-2.54a1.93,1.93,0,0,1-.55-1.27,2,2,0,0,1,.55-1.28L44.36,50.73a.88.88,0,0,0,0-1.28L30.73,35.82a1.75,1.75,0,0,1,0-2.55l2.54-2.54a1.75,1.75,0,0,1,2.55,0L49.45,44.36a.88.88,0,0,0,1.28,0L64.36,30.73a2,2,0,0,1,1.28-.55,1.63,1.63,0,0,1,1.27.55l2.54,2.54a1.75,1.75,0,0,1,0,2.55L55.82,49.45C55.45,49.64,55.45,50.36,55.82,50.73Z"/>
</svg>
