<svg xmlns="http://www.w3.org/2000/svg" xmlns:xlink="http://www.w3.org/1999/xlink" viewBox="0 0 135.88 81.78"><defs><style>.cls-1,.cls-2{fill:none;}.cls-2{stroke:#fff;stroke-miterlimit:10;stroke-width:4px;}.cls-3{fill:#fff;}.cls-4{clip-path:url(#clip-path);}</style><clipPath id="clip-path" transform="translate(0 -0.19)"><rect class="cls-1" x="42" width="93.9" height="81.96"/></clipPath></defs><g id="Capa_2" data-name="Capa 2"><g id="Capa_1-2" data-name="Capa 1"><circle class="cls-2" cx="27" cy="51.8" r="25"/><path class="cls-3" d="M24.9,50.19h-8l1.4-6.5h1.6c4.6-.1,7.3-1.1,9.3-4.7h7.9L31.5,65H21.7Z" transform="translate(0 -0.19)"/><g class="cls-4"><path class="cls-3" d="M126.69,65.12h5.64a3.55,3.55,0,1,0,0-7.09H102.46a1.38,1.38,0,1,0,0,2.76h29.87a.81.81,0,1,1,0,1.61H83.53a4,4,0,0,1-3.31-6.28l2-2.92,2.12-.26L81.54,57a2.41,2.41,0,0,0,2,3.77H97A1.38,1.38,0,1,0,97,58H84.17l3.2-4.67a3.53,3.53,0,0,0,.42-.82L119,48.82l5.91-.69a8.88,8.88,0,0,0,7.83-8.82V34.23a1.38,1.38,0,0,0-2.75,0v.67L113.22,36l-.69-8.11L130,27.78v.92a1.38,1.38,0,1,0,2.75,0V26.42h0V18.85a3.69,3.69,0,0,0-3.51-3.69l-40-2.11H89.1L69.2,11.94l-.32-1.39a5.68,5.68,0,0,0-4.52-4.36l-4.43-.81.21-1.15A1.6,1.6,0,0,0,59.86,3a1.67,1.67,0,0,0-1-.66L46.89.26a4.16,4.16,0,0,0-4.83,3.4,4.17,4.17,0,0,0,3.38,4.83L57.36,10.6a1.32,1.32,0,0,0,.28,0,1.62,1.62,0,0,0,1.6-1.34l.2-1.14L63.85,9a2.91,2.91,0,0,1,2.33,2.24l7.66,34.53h0L75,51a3.36,3.36,0,0,0,3.27,2.65,1.14,1.14,0,0,0,.26,0l-.64.93a6.76,6.76,0,0,0,5.58,10.59H85v.72a8.08,8.08,0,1,0,7.42,2.57,1.38,1.38,0,0,0-2.06,1.84,5.29,5.29,0,0,1,1.36,3.56A5.35,5.35,0,1,1,85,68.71v1.54a3.88,3.88,0,1,0,2.75,0V65.18H124v.72a8.08,8.08,0,1,0,7.42,2.57,1.38,1.38,0,0,0-2.06,1.84,5.29,5.29,0,0,1,1.36,3.56A5.35,5.35,0,1,1,124,68.71v1.54a3.88,3.88,0,1,0,2.75,0l0-5.13ZM45.93,5.75A1.44,1.44,0,0,1,44.77,4.1a1.5,1.5,0,0,1,.59-.92,1.39,1.39,0,0,1,.81-.26,1.23,1.23,0,0,1,.26,0L57.25,4.85l-.49,2.81Zm49.95,43L94.5,40l16.22-1.07.68,8ZM130,37.63v1.64a6.13,6.13,0,0,1-5.41,6.08L114.12,46.6l-.66-7.88Zm-19.46-1.47L94.06,37.25,92.61,28l17.18-.11Zm-37.71-8,17-.11,1.49,9.41L75.09,38.48ZM108.83,16.8l.72,8.34-17.38.11-1.49-9.41Zm21.12,2V25l-17.64.11-.7-8.18,17.44.92a1,1,0,0,1,.9,1ZM87.88,15.69l1.51,9.58-17.2.11L69.84,14.74ZM77.72,50.39l-2-9.17,16-1.07,1.42,9-6.67.79h0l-5.2.62h0l-2.85.34a.61.61,0,0,1-.68-.46Zm8.73,24.55a1.13,1.13,0,1,1,1.12-1.13,1.12,1.12,0,0,1-1.12,1.13Zm38.87,0a1.13,1.13,0,1,1,1.12-1.13,1.12,1.12,0,0,1-1.12,1.13Z" transform="translate(0 -0.19)"/></g></g></g></svg>