<?xml version="1.0" encoding="utf-8"?>
<!-- Generator: Adobe Illustrator 25.2.3, SVG Export Plug-In . SVG Version: 6.00 Build 0)  -->
<svg version="1.1" id="Layer_1" xmlns="http://www.w3.org/2000/svg" xmlns:xlink="http://www.w3.org/1999/xlink" x="0px" y="0px"
	 viewBox="0 0 1920 1080" style="enable-background:new 0 0 1920 1080;" xml:space="preserve">
<style type="text/css">
	.st0{clip-path:url(#SVGID_2_);fill:#FFFFFF;}
</style>
<g>
	<g>
		<defs>
			<rect id="SVGID_1_" x="704" y="317" width="511" height="446"/>
		</defs>
		<clipPath id="SVGID_2_">
			<use xlink:href="#SVGID_1_"  style="overflow:visible;"/>
		</clipPath>
		<path class="st0" d="M1164.9,671.4h30.7c10.7,0,19.3-8.7,19.3-19.3c0-10.7-8.7-19.3-19.3-19.3H1033c-4.1,0-7.5,3.4-7.5,7.5
			c0,4.1,3.4,7.5,7.5,7.5h162.6c2.4,0,4.4,2,4.4,4.4c0,2.4-2,4.4-4.4,4.4H930c-8.1,0-15.5-4.5-19.3-11.7c-3.8-7.2-3.3-15.8,1.3-22.5
			l10.9-15.9l11.5-1.4l-15.2,22.2c-2.8,4.1-3.1,9.1-0.8,13.5c2.3,4.4,6.6,7,11.6,7h73.1c4.1,0,7.5-3.4,7.5-7.5
			c0-4.1-3.3-7.5-7.5-7.5h-69.6l17.4-25.4c1-1.4,1.7-2.9,2.3-4.5l169.6-20.2l32.2-3.8c24.3-2.9,42.6-23.5,42.6-48v-27.6
			c0-4.1-3.4-7.5-7.5-7.5c-4.1,0-7.5,3.4-7.5,7.5v3.6l-91,6l-3.8-44.1l94.8-0.6v5c0,4.1,3.4,7.5,7.5,7.5c4.1,0,7.5-3.4,7.5-7.5
			v-12.4c0,0,0-0.1,0-0.1c0,0,0,0,0-0.1v-41c0-10.7-8.4-19.6-19.1-20.1l-217.9-11.5c-0.1,0-0.2,0-0.3,0L852,382l-1.7-7.6
			c-2.7-12.1-12.3-21.4-24.6-23.7l-24.1-4.4l1.1-6.3c0.4-2.3-0.1-4.7-1.5-6.6c-1.4-1.9-3.4-3.2-5.7-3.6l-64.9-11.4
			c-6-1.1-12,0.3-17,3.8c-5,3.5-8.3,8.7-9.3,14.7c-2.2,12.3,6.1,24.1,18.4,26.3l64.9,11.5c0.5,0.1,1,0.1,1.5,0.1c4.2,0,8-3,8.7-7.3
			l1.1-6.2l24,4.4c6.3,1.2,11.3,5.9,12.7,12.2l41.7,187.9c0,0,0,0,0,0l6.4,28.9c1.9,8.5,9.3,14.4,17.8,14.4c0.5,0,0.9,0,1.4-0.1
			l-3.5,5.1c-7.7,11.3-8.6,25.8-2.2,38c6.4,12.1,18.9,19.6,32.6,19.6h8.4v3.9c-20.7,3.6-36.6,21.7-36.6,43.4
			c0,24.3,19.8,44.1,44.1,44.1c24.3,0,44.1-19.8,44.1-44.1c0-10.9-4-21.3-11.2-29.4c-2.8-3.1-7.5-3.3-10.6-0.6
			c-3.1,2.8-3.3,7.5-0.6,10.6c4.8,5.3,7.4,12.2,7.4,19.4c0,16-13,29.1-29.1,29.1c-16,0-29.1-13-29.1-29.1c0-13.4,9.2-24.8,21.6-28.1
			v8.4c-7.9,3-13.6,10.7-13.6,19.7c0,11.6,9.5,21.1,21.1,21.1c11.6,0,21.1-9.5,21.1-21.1c0-9-5.7-16.6-13.6-19.7v-27.6H1150v3.9
			c-20.7,3.6-36.6,21.7-36.6,43.4c0,24.3,19.8,44.1,44.1,44.1s44.1-19.8,44.1-44.1c0-10.9-4-21.3-11.2-29.4
			c-2.8-3.1-7.5-3.3-10.6-0.6c-3.1,2.8-3.3,7.5-0.6,10.6c4.8,5.3,7.4,12.2,7.4,19.4c0,16-13,29.1-29.1,29.1
			c-16,0-29.1-13.1-29.1-29.1c0-13.4,9.2-24.8,21.6-28.1v8.4c-7.9,3-13.6,10.7-13.6,19.7c0,11.6,9.5,21.1,21.1,21.1
			c11.6,0,21.1-9.5,21.1-21.1c0-9-5.7-16.6-13.6-19.7L1164.9,671.4L1164.9,671.4z M725.4,348.3c-4.2-0.7-7-4.8-6.3-9
			c0.4-2,1.5-3.8,3.2-5c1.3-0.9,2.8-1.4,4.4-1.4c0.4,0,0.9,0,1.4,0.1l58.9,10.4l-2.7,15.3L725.4,348.3z M997.2,582.4l-7.5-47.9
			l88.3-5.8l3.7,43.7L997.2,582.4z M1182.6,521.8v8.9c0,16.9-12.6,31.1-29.4,33.1l-56.7,6.8l-3.6-42.9L1182.6,521.8z M1076.7,513.8
			l-89.4,5.9l-7.9-50.3l93.5-0.6L1076.7,513.8z M871.5,470l92.7-0.6l8.1,51.2l-88.2,5.8L871.5,470z M1067.7,408.4l3.9,45.4
			l-94.6,0.6l-8.1-51.2L1067.7,408.4z M1182.6,419.4v33.7l-96,0.6l-3.8-44.5l94.9,5C1180.5,414.4,1182.6,416.7,1182.6,419.4
			L1182.6,419.4z M953.7,402.4l8.2,52.1l-93.6,0.6l-12.8-57.9L953.7,402.4z M898.4,591.2l-11.1-49.9l87.3-5.8l7.7,48.7l-36.3,4.3
			c0,0,0,0-0.1,0l-28.3,3.4c0,0,0,0,0,0l-15.5,1.8C900.4,594,898.8,592.9,898.4,591.2L898.4,591.2z M945.9,724.8
			c-3.4,0-6.1-2.7-6.1-6.1c0-3.4,2.7-6.1,6.1-6.1c3.4,0,6.1,2.7,6.1,6.1C952,722.1,949.2,724.8,945.9,724.8L945.9,724.8z
			 M1157.4,724.8c-3.4,0-6.1-2.7-6.1-6.1c0-3.4,2.7-6.1,6.1-6.1c3.4,0,6.1,2.7,6.1,6.1C1163.6,722.1,1160.8,724.8,1157.4,724.8
			L1157.4,724.8z M1157.4,724.8"/>
	</g>
</g>
</svg>
