<?xml version="1.0" encoding="utf-8"?>
<!-- Generator: Adobe Illustrator 25.2.3, SVG Export Plug-In . SVG Version: 6.00 Build 0)  -->
<svg version="1.1" id="Layer_1" xmlns="http://www.w3.org/2000/svg" xmlns:xlink="http://www.w3.org/1999/xlink" x="0px" y="0px"
	 viewBox="0 0 1920 1080" style="enable-background:new 0 0 1920 1080;" xml:space="preserve">
<style type="text/css">
	.st0{fill:#FFFFFF;}
</style>
<g>
	<path class="st0" d="M1126.4,355H793.6c-14.1,0-25.6,11.5-25.6,25.6v211.2c0,3.5,2.9,6.4,6.4,6.4h371.2c3.5,0,6.4-2.9,6.4-6.4
		V380.6C1152,366.5,1140.5,355,1126.4,355L1126.4,355z M1139.2,585.4H780.8V380.6c0-7.1,5.7-12.8,12.8-12.8h332.8
		c7.1,0,12.8,5.7,12.8,12.8V585.4z M1139.2,585.4"/>
	<path class="st0" d="M1145.6,585.4H774.4c-3.5,0-6.4,2.9-6.4,6.4v32c0,14.1,11.5,25.6,25.6,25.6h332.8c14.1,0,25.6-11.5,25.6-25.6
		v-32C1152,588.3,1149.1,585.4,1145.6,585.4L1145.6,585.4z M1139.2,623.8c0,7.1-5.7,12.8-12.8,12.8H793.6c-7.1,0-12.8-5.7-12.8-12.8
		v-25.6h358.4V623.8z M1139.2,623.8"/>
	<path class="st0" d="M979.2,611h-38.4c-3.5,0-6.4,2.9-6.4,6.4c0,3.5,2.9,6.4,6.4,6.4h38.4c3.5,0,6.4-2.9,6.4-6.4
		C985.6,613.9,982.7,611,979.2,611L979.2,611z M979.2,611"/>
	<path class="st0" d="M1120,380.6H800c-3.5,0-6.4,2.9-6.4,6.4v204.8c0,3.5,2.9,6.4,6.4,6.4h320c3.5,0,6.4-2.9,6.4-6.4V387
		C1126.4,383.5,1123.5,380.6,1120,380.6L1120,380.6z M1113.6,585.4H806.4v-192h307.2V585.4z M1113.6,585.4"/>
	<path class="st0" d="M1043.2,687.8H876.8c-10.6,0-19.2,8.6-19.2,19.2c0,10.6,8.6,19.2,19.2,19.2h166.4c10.6,0,19.2-8.6,19.2-19.2
		C1062.4,696.4,1053.8,687.8,1043.2,687.8L1043.2,687.8z M1043.2,713.4H876.8c-3.5,0-6.4-2.9-6.4-6.4c0-3.5,2.9-6.4,6.4-6.4h166.4
		c3.5,0,6.4,2.9,6.4,6.4C1049.6,710.5,1046.7,713.4,1043.2,713.4L1043.2,713.4z M1043.2,713.4"/>
	<path class="st0" d="M1030.4,687.8c-21.2,0-32-15.1-32-44.8c0-3.5-2.9-6.4-6.4-6.4h-64c-3.5,0-6.4,2.9-6.4,6.4
		c0,29.7-10.8,44.8-32,44.8c-3.5,0-6.4,2.9-6.4,6.4c0,3.5,2.9,6.4,6.4,6.4h140.8c3.5,0,6.4-2.9,6.4-6.4
		C1036.8,690.7,1033.9,687.8,1030.4,687.8L1030.4,687.8z M920.8,687.8c7.9-8.7,12.5-21.7,13.5-38.4h51.5
		c0.9,16.7,5.6,29.7,13.5,38.4H920.8z M920.8,687.8"/>
	<path class="st0" d="M1073.8,543.6l-15.4-15.4l8.6-8.6c1.6-1.6,2.2-3.9,1.7-6.1c-0.6-2.2-2.2-3.9-4.4-4.6l-64-19.2
		c-2.3-0.7-4.7-0.1-6.4,1.6c-1.7,1.7-2.3,4.1-1.6,6.4l19.2,64c0.6,2.2,2.4,3.8,4.6,4.4c2.2,0.5,4.5-0.1,6.1-1.7l9.1-9.1l15.4,15.5
		c1.2,1.2,2.8,1.9,4.5,1.9c1.7,0,3.3-0.7,4.5-1.9l18.1-18.1C1076.3,550.1,1076.3,546.1,1073.8,543.6L1073.8,543.6z M1051.2,557.2
		l-14.1-14.1c-1.6-1.6-3.8-2.4-5.9-2.4c-2.1,0-4.3,0.8-5.9,2.4l-4.6,4.6l-12.7-42.3l42.3,12.7l-5,5c-1.4,1.4-2.1,3.2-2.1,5.1
		c0,1.9,0.8,3.8,2.1,5.1l14.8,14.8L1051.2,557.2z M1051.2,557.2"/>
	<path class="st0" d="M1036.8,406.2H857.6c-3.5,0-6.4,2.9-6.4,6.4v32c0,3.5,2.9,6.4,6.4,6.4h179.2c3.5,0,6.4-2.9,6.4-6.4v-32
		C1043.2,409.1,1040.3,406.2,1036.8,406.2L1036.8,406.2z M1030.4,438.2H864V419h166.4V438.2z M1030.4,438.2"/>
	<path class="st0" d="M934.4,476.6h-51.2c-3.5,0-6.4,2.9-6.4,6.4v25.6c0,3.5,2.9,6.4,6.4,6.4h51.2c3.5,0,6.4-2.9,6.4-6.4V483
		C940.8,479.5,937.9,476.6,934.4,476.6L934.4,476.6z M928,502.2h-38.4v-12.8H928V502.2z M928,502.2"/>
	<path class="st0" d="M1036.8,406.2H857.6c-3.5,0-6.4,2.9-6.4,6.4v121.6c0,3.5,2.9,6.4,6.4,6.4H1010c2,0,3.9-1,5.1-2.6
		c1.2-1.6,1.6-3.7,1-5.7l-8.1-27l27,8.1c1.9,0.6,4,0.2,5.7-1c1.6-1.2,2.6-3.1,2.6-5.1v-94.7C1043.2,409.1,1040.3,406.2,1036.8,406.2
		L1036.8,406.2z M1030.4,498.7l-30.1-9c-2.3-0.7-4.7-0.1-6.4,1.6c-1.7,1.7-2.3,4.1-1.6,6.4l9,30.2H864V419h166.4V498.7z
		 M1030.4,498.7"/>
</g>
</svg>
