<svg xmlns="http://www.w3.org/2000/svg" viewBox="0 0 150.56 76.24"><defs><style>.cls-1{fill:#fff;}.cls-2{fill:none;stroke:#fff;stroke-miterlimit:10;stroke-width:4px;}</style></defs><g id="Capa_2" data-name="Capa 2"><g id="Capa_1-2" data-name="Capa 1"><path class="cls-1" d="M31.9,43.57c1.3-.3,2.1-.9,2.3-1.9.3-1.4-1.3-2-3.7-2-2.7,0-5.5.2-6.5,3.5H13.3c2.6-8.5,11-9.7,17.3-9.7,8.2,0,15.6,1.4,14.1,8.3-1,4.7-6.3,6.6-10,7.3l-9.4,1.7c-2.2.4-3.5,1-4.3,1.9H41.8l-1.3,6.2H9.1c2.2-9.5,8.9-12.4,15.1-13.7Z"/><circle class="cls-2" cx="27" cy="46.07" r="25"/><path class="cls-1" d="M145.3,0H77a5.27,5.27,0,0,0-5.26,5.26V48.63A1.33,1.33,0,0,0,73,50h76.24a1.32,1.32,0,0,0,1.31-1.32V5.26A5.27,5.27,0,0,0,145.3,0Zm2.63,47.32H74.32V5.26A2.62,2.62,0,0,1,77,2.63H145.3a2.62,2.62,0,0,1,2.63,2.63Z"/><path class="cls-1" d="M149.25,47.32H73a1.33,1.33,0,0,0-1.32,1.31v6.58A5.27,5.27,0,0,0,77,60.46H145.3a5.26,5.26,0,0,0,5.26-5.25V48.63a1.32,1.32,0,0,0-1.31-1.31Zm-1.32,7.89a2.63,2.63,0,0,1-2.63,2.63H77a2.63,2.63,0,0,1-2.63-2.63V50h73.61Z"/><path class="cls-1" d="M115.07,52.58h-7.89a1.32,1.32,0,0,0,0,2.63h7.89a1.32,1.32,0,1,0,0-2.63Z"/><path class="cls-1" d="M144,5.26H78.27A1.32,1.32,0,0,0,77,6.57V48.63A1.33,1.33,0,0,0,78.27,50H144a1.32,1.32,0,0,0,1.31-1.32V6.57A1.31,1.31,0,0,0,144,5.26Zm-1.32,42.06H79.58V7.89h63.09V47.32Z"/><path class="cls-1" d="M128.22,68.35H94a3.95,3.95,0,0,0,0,7.89h34.18a3.95,3.95,0,0,0,0-7.89Zm0,5.26H94A1.32,1.32,0,0,1,94,71h34.18a1.32,1.32,0,0,1,0,2.63Z"/><path class="cls-1" d="M125.59,68.35c-4.36,0-6.58-3.1-6.58-9.2a1.31,1.31,0,0,0-1.31-1.31H104.56a1.32,1.32,0,0,0-1.32,1.31c0,6.1-2.22,9.2-6.57,9.2a1.32,1.32,0,1,0,0,2.63h28.92a1.32,1.32,0,0,0,0-2.63Zm-22.51,0c1.62-1.79,2.56-4.46,2.77-7.89h10.58c.18,3.43,1.15,6.1,2.77,7.89Z"/><path class="cls-1" d="M134.5,38.73l-3.16-3.16,1.76-1.76a1.32,1.32,0,0,0-.55-2.2L119.4,27.66a1.3,1.3,0,0,0-1.31.33,1.32,1.32,0,0,0-.33,1.32l3.94,13.14a1.36,1.36,0,0,0,1,.91A1.34,1.34,0,0,0,123.9,43l1.87-1.87,3.16,3.18a1.31,1.31,0,0,0,.93.39,1.27,1.27,0,0,0,.92-.39l3.72-3.72a1.33,1.33,0,0,0,0-1.87Zm-4.64,2.8-2.9-2.9a1.74,1.74,0,0,0-2.42,0l-1,.95L121,30.89l8.68,2.61-1,1a1.46,1.46,0,0,0-.43,1,1.51,1.51,0,0,0,.43,1l3,3Z"/><path class="cls-1" d="M126.9,10.52H90.1a1.32,1.32,0,0,0-1.32,1.31V18.4a1.33,1.33,0,0,0,1.32,1.32h36.8a1.33,1.33,0,0,0,1.32-1.32V11.83a1.32,1.32,0,0,0-1.32-1.31Zm-1.31,6.57H91.41V13.14h34.18Z"/><path class="cls-1" d="M105.87,25H95.35A1.33,1.33,0,0,0,94,26.29v5.26a1.32,1.32,0,0,0,1.31,1.31h10.52a1.31,1.31,0,0,0,1.31-1.31V26.29A1.32,1.32,0,0,0,105.87,25Zm-1.31,5.26H96.67V27.6h7.89Z"/><path class="cls-1" d="M126.9,10.52H90.1a1.32,1.32,0,0,0-1.32,1.31v25a1.33,1.33,0,0,0,1.32,1.32h31.3a1.34,1.34,0,0,0,1.25-1.71L121,30.87l5.54,1.66a1.32,1.32,0,0,0,1.71-1.25V11.83a1.35,1.35,0,0,0-1.34-1.31Zm-1.31,19-6.19-1.85a1.3,1.3,0,0,0-1.31.33,1.32,1.32,0,0,0-.33,1.32l1.85,6.2H91.41V13.14h34.18Z"/></g></g></svg>