<svg id="Capa_1" data-name="Capa 1" xmlns="http://www.w3.org/2000/svg" width="100" height="100" viewBox="0 0 100 100">
  <defs>
    <style>
      .cls-1 {
        fill: #253b81;
      }
    </style>
  </defs>
  <title>eliminate</title>
  <g>
    <path class="cls-1" d="M95.25,17.25a2,2,0,0,0-1.5-.58H73.63L69.08,5.79a9.08,9.08,0,0,0-3.52-4.1A9.17,9.17,0,0,0,60.42,0H39.58a9.17,9.17,0,0,0-5.14,1.69,9.14,9.14,0,0,0-3.52,4.1L26.37,16.67H6.25a2,2,0,0,0-2.08,2.08v4.17A2,2,0,0,0,6.25,25H12.5V87a14.25,14.25,0,0,0,3.06,9.21A9.16,9.16,0,0,0,22.92,100H77.08a9.06,9.06,0,0,0,7.36-3.94,14.76,14.76,0,0,0,3.06-9.34V25h6.25a2,2,0,0,0,2.08-2.08V18.75A2,2,0,0,0,95.25,17.25ZM38.61,9.05a1.85,1.85,0,0,1,1.1-.72H60.35a1.84,1.84,0,0,1,1.11.72l3.12,7.62H35.42ZM79.17,86.72a7.32,7.32,0,0,1-.46,2.64,5.88,5.88,0,0,1-.94,1.75c-.33.37-.55.56-.69.56H22.92c-.13,0-.36-.19-.69-.56a5.88,5.88,0,0,1-.94-1.75,7.32,7.32,0,0,1-.46-2.64V25H79.17V86.72Z"/>
    <path class="cls-1" d="M31.25,79.17h4.17a2,2,0,0,0,2.08-2.09V39.58a2,2,0,0,0-2.08-2.08H31.25a2,2,0,0,0-2.08,2.08v37.5a2,2,0,0,0,2.08,2.09Z"/>
    <path class="cls-1" d="M47.92,79.17h4.16a2,2,0,0,0,2.09-2.09V39.58a2,2,0,0,0-2.09-2.08H47.92a2,2,0,0,0-2.09,2.08v37.5a2,2,0,0,0,2.09,2.09Z"/>
    <path class="cls-1" d="M64.58,79.17h4.17a2,2,0,0,0,2.08-2.09V39.58a2,2,0,0,0-2.08-2.08H64.58a2,2,0,0,0-2.08,2.08v37.5a2,2,0,0,0,2.08,2.09Z"/>
  </g>
</svg>
