<svg xmlns="http://www.w3.org/2000/svg" width="70" height="67" viewBox="0 0 70 67">
    <defs>
        <style>
            .cls-1{fill:#fff}
        </style>
    </defs>
    <g id="Vector_Smart_Object" data-name="Vector Smart Object" transform="translate(-1946 -2335)">
        <g id="Vector_Smart_Object-2" data-name="Vector Smart Object" transform="translate(1806 2270.925)">
            <g id="Group_7" data-name="Group 7">
                <path id="Path_3" d="M205.332 64.075h-60.664A4.651 4.651 0 0 0 140 68.7v38.119a1.161 1.161 0 0 0 1.166 1.155h67.667a1.161 1.161 0 0 0 1.167-1.158V68.7a4.651 4.651 0 0 0-4.668-4.622zm2.334 41.586h-65.332V68.7a2.325 2.325 0 0 1 2.334-2.312h60.665a2.325 2.325 0 0 1 2.334 2.312zm0 0" data-name="Path 3"/>
                <path id="Path_4" d="M208.834 105.662h-67.668a1.161 1.161 0 0 0-1.166 1.154v5.774a4.651 4.651 0 0 0 4.668 4.622h60.665a4.651 4.651 0 0 0 4.667-4.621v-5.774a1.161 1.161 0 0 0-1.166-1.155zm-1.167 6.93a2.325 2.325 0 0 1-2.334 2.311h-60.665a2.325 2.325 0 0 1-2.334-2.311v-4.619h65.333zm0 0" data-name="Path 4"/>
                <path id="Path_5" d="M178.5 110.282h-7a1.155 1.155 0 1 0 0 2.311h7a1.155 1.155 0 1 0 0-2.311zm0 0" data-name="Path 5"/>
                <path id="Path_6" d="M204.167 68.7h-58.334a1.161 1.161 0 0 0-1.166 1.155v36.965a1.161 1.161 0 0 0 1.166 1.156h58.333a1.161 1.161 0 0 0 1.166-1.156V69.851a1.161 1.161 0 0 0-1.166-1.155zM203 105.662h-56V71.007h56zm0 0" data-name="Path 6"/>
                <path id="Path_7" d="M190.166 124.144h-30.332a3.466 3.466 0 1 0 0 6.931h30.333a3.466 3.466 0 1 0 0-6.931zm0 4.621h-30.332a1.155 1.155 0 1 1 0-2.311h30.333a1.155 1.155 0 1 1 0 2.311zm0 0" data-name="Path 7"/>
                <path id="Path_8" d="M187.833 124.144c-3.871 0-5.833-2.72-5.833-8.086a1.161 1.161 0 0 0-1.166-1.156h-11.667a1.161 1.161 0 0 0-1.167 1.156c0 5.366-1.963 8.086-5.833 8.086a1.155 1.155 0 1 0 0 2.31h25.666a1.155 1.155 0 1 0 0-2.31zm-19.984 0a11 11 0 0 0 2.453-6.931h9.4a10.99 10.99 0 0 0 2.452 6.931zm0 0" data-name="Path 8"/>
                <path id="Path_9" d="M195.748 98.111l-2.816-2.788 1.567-1.551a1.15 1.15 0 0 0-.489-1.923l-11.667-3.465a1.172 1.172 0 0 0-1.159.29 1.144 1.144 0 0 0-.293 1.148l3.5 11.552a1.159 1.159 0 0 0 .832.789 1.183 1.183 0 0 0 1.11-.3l1.65-1.635 2.816 2.79a1.175 1.175 0 0 0 1.65 0l3.3-3.268a1.146 1.146 0 0 0 0-1.634zm-4.124 2.451l-2.564-2.54a1.535 1.535 0 0 0-2.153 0l-.842.834-2.316-7.644 7.72 2.293-.9.894a1.3 1.3 0 0 0 0 1.85l2.706 2.68zm0 0" data-name="Path 9"/>
                <path id="Path_10" d="M189 73.317h-32.666a1.161 1.161 0 0 0-1.167 1.155v5.776a1.161 1.161 0 0 0 1.167 1.155H189a1.161 1.161 0 0 0 1.166-1.155v-5.776A1.161 1.161 0 0 0 189 73.317zm-1.167 5.776H157.5v-3.466h30.333zm0 0" data-name="Path 10"/>
                <path id="Path_11" d="M170.333 86.024H161a1.161 1.161 0 0 0-1.166 1.155V91.8A1.161 1.161 0 0 0 161 92.954h9.333A1.161 1.161 0 0 0 171.5 91.8v-4.622a1.161 1.161 0 0 0-1.167-1.155zm-1.166 4.621h-7v-2.311h7zm0 0" data-name="Path 11"/>
                <path id="Path_12" d="M189 73.317h-32.666a1.161 1.161 0 0 0-1.167 1.155V96.42a1.162 1.162 0 0 0 1.167 1.156h27.774a1.168 1.168 0 0 0 .936-.465 1.148 1.148 0 0 0 .182-1.022l-1.477-4.876 4.918 1.462a1.172 1.172 0 0 0 1.031-.18 1.148 1.148 0 0 0 .47-.926V74.472A1.161 1.161 0 0 0 189 73.317zm-1.167 16.7l-5.492-1.631a1.172 1.172 0 0 0-1.159.29 1.144 1.144 0 0 0-.293 1.149l1.649 5.443H157.5V75.627h30.333zm0 0" data-name="Path 12"/>
            </g>
        </g>
        <path id="Color_Overlay" d="M1965.834 2402a3.466 3.466 0 1 1 0-6.931h2.334c3.582 0 5.53-2.33 5.8-6.931h-23.3a4.65 4.65 0 0 1-4.667-4.623v-43.893a4.65 4.65 0 0 1 4.667-4.623h60.665a4.651 4.651 0 0 1 4.667 4.623v43.893a4.651 4.651 0 0 1-4.667 4.623h-23.3c.27 4.6 2.218 6.931 5.8 6.931h2.334a3.466 3.466 0 1 1 0 6.931zm-1.167-3.466a1.163 1.163 0 0 0 1.167 1.156h30.333a1.155 1.155 0 1 0 0-2.31h-30.333a1.162 1.162 0 0 0-1.166 1.154zm9.182-3.465h14.3a11 11 0 0 1-2.453-6.931h-9.4a11 11 0 0 1-2.447 6.931zm-25.516-11.552a2.326 2.326 0 0 0 2.335 2.311h60.665a2.326 2.326 0 0 0 2.335-2.311v-4.62h-65.334zm61.834-43.9a1.161 1.161 0 0 1 1.166 1.155v35.811h2.334v-36.964a2.326 2.326 0 0 0-2.335-2.312h-60.665a2.326 2.326 0 0 0-2.335 2.312v36.964h2.334v-35.811a1.161 1.161 0 0 1 1.166-1.155zm-57.167 36.97h56v-34.656h-56zm24.5 6.93a1.155 1.155 0 1 1 0-2.31h7a1.155 1.155 0 1 1 0 2.31zm19.3-9.579l-2.816-2.79-1.651 1.634a1.181 1.181 0 0 1-1.11.3 1.157 1.157 0 0 1-.832-.789l-1.151-3.8h-26.906a1.162 1.162 0 0 1-1.167-1.156V2345.4a1.162 1.162 0 0 1 1.167-1.155H1995a1.161 1.161 0 0 1 1.166 1.155v16.234l3.843 1.142a1.15 1.15 0 0 1 .49 1.923l-1.568 1.551 2.816 2.788a1.145 1.145 0 0 1 0 1.634l-3.3 3.268a1.174 1.174 0 0 1-1.65 0zm-1.74-4.99l2.564 2.54 1.65-1.635-2.706-2.679a1.3 1.3 0 0 1 0-1.85l.9-.894-2.759-.82-.043-.012-4.918-1.462 2.316 7.644.842-.834a1.535 1.535 0 0 1 2.154 0zm-31.559-2.758h25.039l-1.649-5.443a1.142 1.142 0 0 1 .292-1.149 1.176 1.176 0 0 1 1.16-.29l3.526 1.048 1.964.583v-8.611H1963.5zm0-16.172h30.333v-3.466H1963.5zm3.5 13.862a1.161 1.161 0 0 1-1.166-1.156v-4.624a1.161 1.161 0 0 1 1.166-1.155h9.333a1.161 1.161 0 0 1 1.167 1.155v4.621a1.162 1.162 0 0 1-1.167 1.156zm1.167-2.31h7v-2.31h-7z" class="cls-1" data-name="Color Overlay"/>
    </g>
</svg>
