<svg xmlns="http://www.w3.org/2000/svg" width="81" height="81" viewBox="0 0 81 81">
    <defs>
        <style>
            .cls-1{fill:#fff}
        </style>
    </defs>
    <g id="Vector_Smart_Object" data-name="Vector Smart Object" transform="translate(-2534 -2321)">
        <g id="Vector_Smart_Object-2" data-name="Vector Smart Object" transform="translate(2365.468 2243.919)">
            <g id="Group_9" data-name="Group 9">
                <path id="Path_23" d="M241.478 139.862l-7.611-39.321a6.5 6.5 0 0 0-5.239-10.4c-.141 0-.271.032-.41.042l-.591-3.547a5.215 5.215 0 1 0-6.338-8.253h-8.338a3.919 3.919 0 1 0 0 7.839h8.338a5.175 5.175 0 0 0 3.42 1.306c.141 0 .273-.03.41-.042l.565 3.388a6.5 6.5 0 0 0 .465 11.836l2.678 13.84-3.462 15.25a16.9 16.9 0 0 1-16.565 13.216h-12.075a14.369 14.369 0 0 0-28.193 3.919h2.613a11.753 11.753 0 0 1 22.836-3.919h-2.827a9.145 9.145 0 1 0 0 7.839h18.353a23.361 23.361 0 0 0 22.854-18.039l1.5 7.729a9.142 9.142 0 1 0 7.621-2.683zm-29.833-57.556A1.307 1.307 0 0 1 212.952 81h6.718a4.693 4.693 0 0 0 0 2.613h-6.718a1.307 1.307 0 0 1-1.306-1.306zm10.452 0a2.613 2.613 0 1 1 2.613 2.613 2.616 2.616 0 0 1-2.613-2.613zm14.089 58.515l-7.286-37.639a6.453 6.453 0 0 0 2.681-.711l7.251 37.461a9.117 9.117 0 0 0-2.647.889zM224.71 96.677a3.919 3.919 0 1 1 3.919 3.919 3.924 3.924 0 0 1-3.919-3.919zm-41.81 58.791a6.532 6.532 0 1 1 6.532-6.532 6.539 6.539 0 0 1-6.532 6.532zm47.008-21.595a20.775 20.775 0 0 1-20.4 16.369h-17.564a8.218 8.218 0 0 0 0-2.613H208.8a19.5 19.5 0 0 0 19.109-15.254l2.148-9.451 1.064 5.491zm10.476 21.595a6.532 6.532 0 1 1 6.532-6.532 6.539 6.539 0 0 1-6.532 6.532zm0 0" data-name="Path 23"/>
                <path id="Path_24" d="M240.387 145.016a3.919 3.919 0 1 0 3.919 3.919 3.924 3.924 0 0 0-3.919-3.919zm0 5.226a1.306 1.306 0 1 1 1.306-1.306 1.307 1.307 0 0 1-1.306 1.306zm0 0" data-name="Path 24"/>
                <path id="Path_25" d="M182.9 145.016a3.919 3.919 0 1 0 3.919 3.919 3.924 3.924 0 0 0-3.919-3.919zm0 5.226a1.306 1.306 0 1 1 1.306-1.306 1.307 1.307 0 0 1-1.306 1.306zm0 0" data-name="Path 25"/>
                <path id="Rectangle_3" d="M0 0h15.677v2.613H0z" data-name="Rectangle 3" transform="translate(198.581 139.79)"/>
            </g>
        </g>
        <path id="Color_Overlay" d="M2596.709 2392.855a9.109 9.109 0 0 1 2.617-6.391l-1.5-7.729a23.361 23.361 0 0 1-22.854 18.04h-18.353a9.145 9.145 0 1 1 0-7.839h2.827a11.753 11.753 0 0 0-22.836 3.919H2534a14.369 14.369 0 0 1 28.193-3.919h12.079a16.893 16.893 0 0 0 16.56-13.218l3.463-15.243-2.677-13.84a6.5 6.5 0 0 1-.465-11.836l-.565-3.388c-.137.012-.269.042-.41.042a5.178 5.178 0 0 1-3.42-1.307h-8.338a3.919 3.919 0 1 1 0-7.838h8.338a5.178 5.178 0 0 1 3.42-1.307 5.225 5.225 0 0 1 2.919 9.56l.591 3.546c.138-.009.269-.042.41-.042a6.54 6.54 0 0 1 6.532 6.532 6.47 6.47 0 0 1-1.294 3.864l7.611 39.321a9.142 9.142 0 1 1-10.237 9.074zm2.614 0a6.532 6.532 0 1 0 6.532-6.532 6.54 6.54 0 0 0-6.532 6.532zm-57.484 0a6.532 6.532 0 1 0 6.532-6.532 6.54 6.54 0 0 0-6.532 6.532zm15.678 0a9.229 9.229 0 0 1-.105 1.306h17.563a20.777 20.777 0 0 0 20.4-16.368l1.212-5.458-1.063-5.491-2.148 9.451a19.5 19.5 0 0 1-19.109 15.254h-16.861a9.257 9.257 0 0 1 .111 1.306zm36.851-45.753l7.286 37.639a9.119 9.119 0 0 1 2.646-.889l-7.25-37.461a6.464 6.464 0 0 1-2.682.709zm-4.191-6.505a3.919 3.919 0 1 0 3.92-3.918 3.925 3.925 0 0 0-3.92 3.921zm-2.612-14.37a2.613 2.613 0 1 0 2.612-2.614 2.616 2.616 0 0 0-2.612 2.614zm-10.452 0a1.306 1.306 0 0 0 1.306 1.306h6.719a4.674 4.674 0 0 1 0-2.613h-6.719a1.306 1.306 0 0 0-1.306 1.307zm24.822 66.629a3.92 3.92 0 1 1 3.92 3.919 3.924 3.924 0 0 1-3.92-3.92zm2.614 0a1.306 1.306 0 1 0 1.306-1.307 1.306 1.306 0 0 0-1.306 1.306zm-60.1 0a3.92 3.92 0 1 1 3.92 3.919 3.924 3.924 0 0 1-3.918-3.92zm2.614 0a1.306 1.306 0 1 0 1.306-1.307 1.307 1.307 0 0 0-1.304 1.306zm16.984-6.532v-2.613h15.678v2.613z" class="cls-1" data-name="Color Overlay"/>
    </g>
</svg>
