<svg xmlns="http://www.w3.org/2000/svg" width="52.992" height="53.006" viewBox="0 0 52.992 53.006">
    <defs>
        <style>
            .cls-1{fill:#fff;font-size:40px;font-family:Helvetica}.cls-2{fill:none}.cls-3,.cls-4{stroke:none}.cls-4{fill:#f2e850}
        </style>
    </defs>
    <g id="_3" data-name="3" transform="translate(-2456.87 -2353.313)">
        <text id="_3-2" class="cls-1" data-name="3" transform="translate(2472.119 2393.09)">
            <tspan x="0" y="0">3</tspan>
        </text>
        <g id="Ellipse_1" class="cls-2" data-name="Ellipse 1">
            <path d="M2483.74 2353.316a26.5 26.5 0 1 1-26.867 26.126 26.5 26.5 0 0 1 26.867-26.126z" class="cls-3"/>
            <path d="M2483.359 2357.103a22.562 22.562 0 0 0-15.928 6.534 22.58 22.58 0 0 0-6.769 15.858 22.644 22.644 0 0 0 6.423 16.153 22.637 22.637 0 0 0 16.29 6.881c5.995 0 11.651-2.32 15.927-6.533a22.583 22.583 0 0 0 6.768-15.86 22.645 22.645 0 0 0-6.423-16.153 22.637 22.637 0 0 0-16.288-6.88m0-3.79l.381.003c14.632.206 26.326 12.239 26.12 26.874-.205 14.508-12.028 26.13-26.485 26.13-.128 0-.255-.002-.383-.004-14.632-.206-26.326-12.239-26.12-26.874.206-14.508 12.029-26.129 26.487-26.129z" class="cls-4"/>
        </g>
    </g>
</svg>
