<svg xmlns="http://www.w3.org/2000/svg" width="80" height="69" viewBox="0 0 80 69">
    <defs>
        <style>
            .cls-1{fill:none}.cls-2{fill:#fff}.cls-3{clip-path:url(#clip-path)}
        </style>
        <clipPath id="clip-path">
            <path id="Rectangle_1" d="M0 0h80v69H0z" class="cls-1" data-name="Rectangle 1" transform="translate(110.215 49.043)"/>
        </clipPath>
    </defs>
    <g id="Vector_Smart_Object" data-name="Vector Smart Object" transform="translate(-1332 -2333)">
        <g id="Vector_Smart_Object-2" data-name="Vector Smart Object" transform="translate(1221.785 2283.958)">
            <g id="Group_3" data-name="Group 3">
                <g id="Group_2" data-name="Group 2">
                    <g id="Group_1" class="cls-3" data-name="Group 1">
                        <path id="Path_1" d="M182.377 103.872h4.81a2.992 2.992 0 1 0 0-5.984h-25.463a1.158 1.158 0 1 0 0 2.316h25.464a.676.676 0 1 1 0 1.351h-41.6a3.416 3.416 0 0 1-3.025-1.8 3.336 3.336 0 0 1 .2-3.483l1.7-2.452 1.807-.213-2.37 3.425a1.977 1.977 0 0 0-.122 2.09 2.025 2.025 0 0 0 1.814 1.082h11.446a1.158 1.158 0 1 0 0-2.316h-10.89l2.728-3.934a2.966 2.966 0 0 0 .358-.7l26.549-3.133 5.045-.594a7.513 7.513 0 0 0 6.668-7.423v-4.265a1.172 1.172 0 0 0-2.344 0v.56l-14.25.931-.587-6.822 14.837-.088v.768a1.172 1.172 0 0 0 2.344 0v-1.925-.014-6.361a3.136 3.136 0 0 0-2.99-3.116l-34.111-1.785h-.042l-16.964-.887-.263-1.172a4.8 4.8 0 0 0-3.847-3.663l-3.774-.684.175-.978a1.348 1.348 0 0 0-.23-1.024 1.38 1.38 0 0 0-.895-.563l-10.166-1.771a3.565 3.565 0 0 0-2.657.582 3.485 3.485 0 0 0-1.462 2.269 3.521 3.521 0 0 0 2.885 4.07l10.166 1.772a1.445 1.445 0 0 0 .241.021 1.385 1.385 0 0 0 1.364-1.132l.172-.965 3.759.68a2.472 2.472 0 0 1 1.982 1.887l6.526 29.067 1 4.469a2.851 2.851 0 0 0 2.794 2.221c.072 0 .144 0 .217-.009l-.542.783a5.623 5.623 0 0 0-.344 5.872 5.759 5.759 0 0 0 5.1 3.04h1.317v.605a6.823 6.823 0 1 0 8.069 6.715 6.756 6.756 0 0 0-1.756-4.543 1.181 1.181 0 0 0-1.654-.091 1.148 1.148 0 0 0-.092 1.635 4.46 4.46 0 0 1 1.158 3 4.554 4.554 0 1 1-5.725-4.348v1.3a3.3 3.3 0 1 0 2.343 0v-4.276h30.783v.6a6.823 6.823 0 1 0 8.069 6.715 6.757 6.757 0 0 0-1.756-4.543 1.181 1.181 0 0 0-1.654-.091 1.148 1.148 0 0 0-.092 1.635 4.459 4.459 0 0 1 1.159 3 4.554 4.554 0 1 1-5.725-4.348v1.3a3.3 3.3 0 1 0 2.343 0v-4.276zm-68.816-49.99a1.2 1.2 0 0 1 .208-2.378 1.214 1.214 0 0 1 .213.019l9.223 1.607-.421 2.36zm42.55 36.228l-1.18-7.416 13.83-.9.582 6.759zm29.039-9.389V82.1a5.185 5.185 0 0 1-4.6 5.123l-8.879 1.047-.571-6.636zm-16.589-1.238l-14 .914-1.24-7.789 14.637-.086zm-32.116-6.775l14.51-.086 1.262 7.928-13.809.9zm30.714-9.526l.6 7.024-14.807.088-1.252-7.92zm17.992 1.7V70.1l-15.036.089-.593-6.886 14.859.778a.808.808 0 0 1 .77.8zM149.3 62.249l1.284 8.06-14.661.086-2.01-8.952zm-8.648 29.213l-1.734-7.722 13.661-.893 1.2 7.537-5.679.67h-.01l-4.429.523h-.007l-2.425.286a.524.524 0 0 1-.575-.4zm7.423 20.674a.944.944 0 1 1 .956-.944.951.951 0 0 1-.956.944zm33.127 0a.944.944 0 1 1 .955-.944.952.952 0 0 1-.955.944zm0 0" data-name="Path 1"/>
                    </g>
                </g>
            </g>
        </g>
        <path id="Color_Overlay" d="M1396.094 2395.149a6.848 6.848 0 0 1 5.725-6.715v-.606h-30.783v4.277a3.3 3.3 0 1 1-2.344 0v-1.3a4.508 4.508 0 1 0 5.725 4.348 4.453 4.453 0 0 0-1.158-3 1.148 1.148 0 0 1 .092-1.635 1.182 1.182 0 0 1 1.654.091 6.753 6.753 0 0 1 1.757 4.543 6.9 6.9 0 1 1-8.069-6.715v-.606h-1.316a5.76 5.76 0 0 1-5.1-3.039 5.625 5.625 0 0 1 .344-5.874l.542-.782q-.108.009-.216.009a2.852 2.852 0 0 1-2.794-2.221l-1-4.469-6.526-29.067a2.469 2.469 0 0 0-1.981-1.887l-3.758-.68-.172.965a1.378 1.378 0 0 1-1.606 1.111l-10.166-1.771a3.5 3.5 0 0 1-1.422-6.34 3.562 3.562 0 0 1 2.657-.581l10.166 1.771a1.38 1.38 0 0 1 .895.563 1.347 1.347 0 0 1 .229 1.023l-.175.977 3.774.685a4.794 4.794 0 0 1 3.847 3.662l.264 1.172 16.962.889a.3.3 0 0 1 .041 0l34.112 1.784a3.136 3.136 0 0 1 2.99 3.116v8.302a1.172 1.172 0 0 1-2.344 0v-.769l-14.837.088.588 6.822 14.25-.933v-.56a1.172 1.172 0 0 1 2.344 0v4.265a7.515 7.515 0 0 1-6.667 7.424l-5.045.594-26.549 3.133a2.944 2.944 0 0 1-.358.7l-2.728 3.935h10.89a1.158 1.158 0 1 1 0 2.316h-11.445a2.025 2.025 0 0 1-1.815-1.082 1.976 1.976 0 0 1 .122-2.09l2.378-3.429-1.807.212-1.7 2.452a3.335 3.335 0 0 0-.2 3.484 3.416 3.416 0 0 0 3.025 1.8h41.6a.676.676 0 1 0 0-1.352h-25.464a1.158 1.158 0 1 1 0-2.316h25.464a2.992 2.992 0 1 1 0 5.983h-4.81v4.277a3.3 3.3 0 1 1-2.344 0v-1.3a4.508 4.508 0 1 0 5.725 4.348 4.455 4.455 0 0 0-1.159-3 1.149 1.149 0 0 1 .093-1.636 1.182 1.182 0 0 1 1.654.091 6.756 6.756 0 0 1 1.756 4.543 6.9 6.9 0 0 1-13.794 0zm5.941 0a.956.956 0 1 0 .956-.944.952.952 0 0 0-.957.944zm-33.126 0a.956.956 0 1 0 .956-.944.952.952 0 0 0-.957.944zm-8.2-27.452l1.733 7.722a.524.524 0 0 0 .575.4l2.425-.286h.007l4.43-.525h.011l5.679-.669-1.2-7.539zm16.008-1.046l1.181 7.416 13.231-1.561-.581-6.759zm16.169-1.056l.572 6.636 8.878-1.048a5.184 5.184 0 0 0 4.6-5.123v-1.383zm-34.654-8.929l1.963 8.742 13.81-.9-1.263-7.929zm16.879-.1l1.24 7.788 14-.913-.6-6.962zm-17.4-2.214l14.661-.086-1.283-8.059-15.387-.806zm17.031-.1l14.807-.086-.6-7.023-15.463-.811zm17.158-.1l15.036-.089v-5.218a.808.808 0 0 0-.77-.8l-14.859-.778zm-57.038-18.474a1.193 1.193 0 0 0 .485 2.161l9.222 1.607.421-2.359-9.223-1.607a1.325 1.325 0 0 0-.212-.018 1.222 1.222 0 0 0-.694.215z" class="cls-2" data-name="Color Overlay"/>
    </g>
</svg>
