<svg id="Layer_1" data-name="Layer 1" xmlns="http://www.w3.org/2000/svg" width="100" height="100" viewBox="0 0 100 100">
  <defs>
    <style>
      .cls-1 {
        fill: #253b81;
      }
    </style>
  </defs>
  <title>register</title>
  <g>
    <path class="cls-1" d="M79.33,25.18A1.66,1.66,0,0,0,81,23.52V5.87a7,7,0,0,0-7-6.95H7A7,7,0,0,0,0,5.87V94.13a7,7,0,0,0,7,7H74a7,7,0,0,0,7-7V76.48a1.66,1.66,0,1,0-3.31,0V94.13A3.64,3.64,0,0,1,74,97.77H7a3.64,3.64,0,0,1-3.64-3.64V5.87A3.64,3.64,0,0,1,7,2.23H74a3.64,3.64,0,0,1,3.64,3.64V23.52A1.66,1.66,0,0,0,79.33,25.18Z"/>
    <path class="cls-1" d="M44,6H37a1.66,1.66,0,0,0,0,3.31H44A1.66,1.66,0,1,0,44,6Z"/>
    <path class="cls-1" d="M29.9,6a1.66,1.66,0,1,0,1.66,1.66v0A1.65,1.65,0,0,0,29.9,6Z"/>
    <path class="cls-1" d="M44,90.71H37A1.66,1.66,0,0,0,37,94H44a1.66,1.66,0,1,0,0-3.31Z"/>
    <path class="cls-1" d="M72.27,25.18a1.66,1.66,0,0,0,1.65-1.66V14.69A1.65,1.65,0,0,0,72.27,13H8.72a1.65,1.65,0,0,0-1.66,1.65V85.31A1.65,1.65,0,0,0,8.72,87H72.27a1.65,1.65,0,0,0,1.65-1.65V76.48a1.66,1.66,0,1,0-3.31,0v7.17H10.37V16.35H70.61v7.17A1.66,1.66,0,0,0,72.27,25.18Z"/>
    <path class="cls-1" d="M52.85,71.29H38.73a1.66,1.66,0,1,0,0,3.31H52.85a1.66,1.66,0,0,0,0-3.31Z"/>
    <path class="cls-1" d="M31.67,71.29H28.13a1.66,1.66,0,0,0,0,3.31h3.54a1.66,1.66,0,0,0,0-3.31Z"/>
    <path class="cls-1" d="M40.49,27.16a8.72,8.72,0,1,0,8.72,8.72A8.73,8.73,0,0,0,40.49,27.16Zm0,14.12a5.41,5.41,0,1,1,5.41-5.4A5.4,5.4,0,0,1,40.49,41.28Z"/>
    <path class="cls-1" d="M49.17,47.83a3.48,3.48,0,0,0-4.71.5,5.32,5.32,0,0,1-7.94,0,3.46,3.46,0,0,0-4.7-.5,13.93,13.93,0,0,0-5.34,11v5.29a1.65,1.65,0,0,0,1.65,1.66H52.85a1.65,1.65,0,0,0,1.65-1.66V58.83A14,14,0,0,0,49.17,47.83Zm2,14.64H29.79V58.83a10.65,10.65,0,0,1,4.07-8.39.24.24,0,0,1,.2.11,8.64,8.64,0,0,0,12.86,0,.35.35,0,0,1,.19-.12h0a10.65,10.65,0,0,1,4.07,8.4v3.64Z"/>
    <path class="cls-1" d="M72.38,40.64,61.67,56.32a9.45,9.45,0,0,0-1.17,2.36l-3.32,10a1.51,1.51,0,0,0,.58,1.71,1.49,1.49,0,0,0,1.12.23,1.42,1.42,0,0,0,.68-.32l8.09-6.73a9.38,9.38,0,0,0,1.78-1.94l30-44a3.11,3.11,0,0,0-.81-4.31L96,11.52a3.08,3.08,0,0,0-4.3.81L74.76,37.14ZM65.74,61.26l-4.07,3.38,1.67-5a5,5,0,0,1,.3-.72l2.67,1.82A7.27,7.27,0,0,1,65.74,61.26Zm2.33-3-2.81-1.92L90.63,19.22l2.81,1.92ZM97,15.94l-1.86,2.72-2.81-1.92L94.18,14a.08.08,0,0,1,.06,0c.05,0,.07,0,.08,0L97,15.79A.11.11,0,0,1,97,15.94Z"/>
    <path class="cls-1" d="M72.27,78.33a1.65,1.65,0,0,1-1.65-1.64V62.47a1.65,1.65,0,1,1,3.29,0V76.69A1.64,1.64,0,0,1,72.27,78.33Z"/>
    <path class="cls-1" d="M79.34,78.32a1.65,1.65,0,0,1-1.65-1.65V53.78a1.65,1.65,0,1,1,3.29,0V76.67A1.64,1.64,0,0,1,79.34,78.32Z"/>
    <path class="cls-1" d="M72.27,37.36a1.63,1.63,0,0,1-1.64-1.64V23.34a1.65,1.65,0,0,1,3.29,0V35.72A1.64,1.64,0,0,1,72.27,37.36Z"/>
    <path class="cls-1" d="M79.34,27.65A1.64,1.64,0,0,1,77.7,26V23.41a1.65,1.65,0,1,1,3.29,0V26A1.65,1.65,0,0,1,79.34,27.65Z"/>
  </g>
</svg>
