<svg id="Layer_1" data-name="Layer 1" xmlns="http://www.w3.org/2000/svg" width="30" height="25.27" viewBox="0 0 30 25.27">
  <defs>
    <style>
      .cls-1 {
        fill: none;
        stroke: #253b81;
        stroke-linejoin: round;
        stroke-width: 2px;
      }

      .cls-2 {
        fill: #253b81;
      }

      .cls-3 {
        fill: #fff;
      }
    </style>
  </defs>
  <title>register</title>
  <g>
    <rect class="cls-1" x="1.64" y="1.49" width="26.73" height="22.28"/>
    <path class="cls-2" d="M15,6.12a3.72,3.72,0,1,0,3.71,3.72A3.72,3.72,0,0,0,15,6.12Z"/>
    <path class="cls-2" d="M18.7,14.06a1.48,1.48,0,0,0-2,.21,2.27,2.27,0,0,1-3.2.18l-.18-.18a1.46,1.46,0,0,0-2-.21A5.93,5.93,0,0,0,9,18.74V21a.71.71,0,0,0,.7.71H20.26A.7.7,0,0,0,21,21h0V18.74A6,6,0,0,0,18.7,14.06Z"/>
    <rect class="cls-2" x="1.64" y="1.49" width="26.28" height="3.18"/>
    <g>
      <circle class="cls-3" cx="21.65" cy="2.64" r="1.15"/>
      <circle class="cls-3" cx="25.16" cy="2.64" r="1.15"/>
      <circle class="cls-3" cx="18.14" cy="2.64" r="1.15"/>
    </g>
  </g>
</svg>
