<svg xmlns="http://www.w3.org/2000/svg" viewBox="0 0 143.74 76.42"><defs><style>.cls-1{fill:none;stroke:#fff;stroke-miterlimit:10;stroke-width:4px;}.cls-2{fill:#fff;}</style></defs><g id="Capa_2" data-name="Capa 2"><g id="Capa_1-2" data-name="Capa 1"><circle class="cls-1" cx="27" cy="48.77" r="25"/><path class="cls-2" d="M22.8,45.37h7c2.2,0,2.9-.8,3.1-1.7.2-1.1-.2-2-4.1-2-3.4,0-3.9.2-4.8,1.3H13.4c1.7-5.5,7.6-7.3,16.7-7.3,10.9,0,14.7,2.1,13.6,7.1-.4,2-1.5,4.1-5.4,5v.1c3,.7,4.5,2.6,3.8,5.8-1,4.7-5.3,8.1-16.9,8.1-7.6,0-16.1-.5-14.8-8.9H20.7a1.89,1.89,0,0,0,.9,2c.8.5,2.1.7,4.2.7,4.6,0,5.5-1.3,5.7-2.4.3-1.6-.9-2-3.5-2H21.5Z"/><path class="cls-2" d="M136.14,59.21,129,22.12a6.1,6.1,0,0,0,1.21-3.64A6.19,6.19,0,0,0,124,12.32a2.72,2.72,0,0,0-.39,0L123.06,9a4.92,4.92,0,1,0-6-7.79h-7.84a3.7,3.7,0,1,0,0,7.4h7.87a4.86,4.86,0,0,0,3.22,1.23,2.58,2.58,0,0,0,.39,0l.53,3.2a6.12,6.12,0,0,0,.44,11.15l2.52,13.07L121,51.61a16,16,0,0,1-15.63,12.47H93.92a13.56,13.56,0,0,0-26.6,3.7h2.47a11.09,11.09,0,0,1,21.54-3.7H88.66a8.63,8.63,0,1,0,0,7.39H106a22.05,22.05,0,0,0,21.57-17L129,61.76a8.61,8.61,0,1,0,7.18-2.55ZM108,4.93a1.23,1.23,0,0,1,1.23-1.23h6.35a4.52,4.52,0,0,0-.19,1.23,3.86,3.86,0,0,0,.19,1.23h-6.35A1.23,1.23,0,0,1,108,4.93Zm9.86,0a2.46,2.46,0,1,1,2.46,2.46,2.47,2.47,0,0,1-2.46-2.46Zm13.28,55.19L124.27,24.6a6.13,6.13,0,0,0,2.53-.67l6.84,35.32a10.07,10.07,0,0,0-2.49.87ZM120.33,18.48a3.7,3.7,0,1,1,3.7,3.7,3.7,3.7,0,0,1-3.7-3.7ZM80.9,73.94a6.17,6.17,0,1,1,6.16-6.16,6.18,6.18,0,0,1-6.16,6.16Zm44.34-20.38A19.6,19.6,0,0,1,106,69H89.42a8.5,8.5,0,0,0,.1-1.23,8.64,8.64,0,0,0-.1-1.24h15.9a18.4,18.4,0,0,0,18-14.39l2-8.92,1,5.18Zm9.88,20.38a6.17,6.17,0,1,1,6.16-6.16,6.18,6.18,0,0,1-6.16,6.16Z"/><path class="cls-2" d="M135.12,64.08a3.7,3.7,0,1,0,3.69,3.7,3.7,3.7,0,0,0-3.69-3.7Zm0,4.93a1.24,1.24,0,1,1,1.23-1.23A1.24,1.24,0,0,1,135.12,69Z"/><path class="cls-2" d="M80.9,64.08a3.7,3.7,0,1,0,3.69,3.7,3.7,3.7,0,0,0-3.69-3.7Zm0,4.93a1.24,1.24,0,1,1,1.23-1.23A1.24,1.24,0,0,1,80.9,69Z"/><rect class="cls-2" x="95.68" y="59.15" width="14.79" height="2.46"/></g></g></svg>