<?xml version="1.0" encoding="utf-8"?>
<!-- Generator: Adobe Illustrator 25.2.3, SVG Export Plug-In . SVG Version: 6.00 Build 0)  -->
<svg version="1.1" id="Layer_1" xmlns="http://www.w3.org/2000/svg" xmlns:xlink="http://www.w3.org/1999/xlink" x="0px" y="0px"
	 viewBox="0 0 1920 1080" style="enable-background:new 0 0 1920 1080;" xml:space="preserve">
<style type="text/css">
	.st0{fill:#FFFFFF;}
</style>
<g>
	<path class="st0" d="M1109,642.3l-35-180.6c3.7-5,5.9-11.1,5.9-17.7c0-16.5-13.5-30-30-30c-0.6,0-1.2,0.1-1.9,0.2l-2.7-16.3
		c6.4-4.3,10.6-11.6,10.6-19.9c0-13.2-10.8-24-24-24c-6,0-11.5,2.3-15.7,6H978c-9.9,0-18,8.1-18,18s8.1,18,18,18h38.3
		c4.2,3.7,9.7,6,15.7,6c0.6,0,1.3-0.1,1.9-0.2l2.6,15.6c-9.7,5-16.5,15-16.5,26.6c0,12.5,7.7,23.2,18.6,27.7l12.3,63.6l-15.9,70
		c-8.1,35.7-39.4,60.7-76.1,60.7h-55.5c-8-28.1-33.9-48-63.5-48c-36.4,0-66,29.6-66,66h12c0-29.8,24.2-54,54-54
		c23.1,0,43.4,14.8,50.9,36h-13c-6.8-14.2-21.2-24-37.9-24c-23.2,0-42,18.8-42,42s18.8,42,42,42c16.7,0,31.1-9.8,37.9-24h84.3
		c50.4,0,93.3-34,105-82.8l6.9,35.5c-7.4,7.6-12,17.9-12,29.4c0,23.2,18.8,42,42,42c23.2,0,42-18.8,42-42
		C1146,662.5,1129.8,644.8,1109,642.3L1109,642.3z M972,378c0-3.3,2.7-6,6-6h30.9c-0.5,1.9-0.9,3.9-0.9,6s0.3,4.1,0.9,6H978
		C974.7,384,972,381.3,972,378L972,378z M1020,378c0-6.6,5.4-12,12-12c6.6,0,12,5.4,12,12s-5.4,12-12,12
		C1025.4,390,1020,384.6,1020,378L1020,378z M1084.7,646.7l-33.5-172.9c4.4-0.2,8.6-1.4,12.3-3.3l33.3,172
		C1092.5,643.4,1088.5,644.8,1084.7,646.7L1084.7,646.7z M1032,444c0-9.9,8.1-18,18-18s18,8.1,18,18s-8.1,18-18,18
		S1032,453.9,1032,444L1032,444z M840,714c-16.5,0-30-13.5-30-30s13.5-30,30-30c16.5,0,30,13.5,30,30S856.5,714,840,714L840,714z
		 M1055.9,614.8c-9.8,44.3-48.4,75.2-93.7,75.2h-80.7c0.3-2,0.5-4,0.5-6s-0.2-4-0.5-6h77.4c42.3,0,78.4-28.8,87.8-70.1l9.9-43.4
		l4.9,25.2L1055.9,614.8z M1104,714c-16.5,0-30-13.5-30-30s13.5-30,30-30s30,13.5,30,30S1120.5,714,1104,714L1104,714z M1104,714"/>
	<path class="st0" d="M1104,666c-9.9,0-18,8.1-18,18s8.1,18,18,18s18-8.1,18-18S1113.9,666,1104,666L1104,666z M1104,690
		c-3.3,0-6-2.7-6-6s2.7-6,6-6s6,2.7,6,6S1107.3,690,1104,690L1104,690z M1104,690"/>
	<path class="st0" d="M840,666c-9.9,0-18,8.1-18,18s8.1,18,18,18s18-8.1,18-18S849.9,666,840,666L840,666z M840,690
		c-3.3,0-6-2.7-6-6s2.7-6,6-6s6,2.7,6,6S843.3,690,840,690L840,690z M840,690"/>
	<rect x="912" y="642" class="st0" width="72" height="12"/>
</g>
</svg>
