<svg id="Capa_1" data-name="Capa 1" xmlns="http://www.w3.org/2000/svg" viewBox="0 0 694.22 469.26"><defs><style>.cls-1{fill:#fff;}.cls-2{fill:none;stroke:#f2e750;stroke-miterlimit:10;stroke-width:9px;}</style></defs><path class="cls-1" d="M231.58,217.84h23.57l.24.24v48.57l-.24.24H241.58l-.25-.24V228.53h-9.75l-.24-.21V218.08Z"/><circle class="cls-2" cx="244.63" cy="240" r="61.01"/><path class="cls-1" d="M450.68,131.56c2.91,1.32,3.91,3.57,3.83,6.72-.16,6.22-.05,12.44-.05,18.67v2.1h2.1c12.05,0,24.09,0,36.14,0,7.52,0,13.21,3.13,16.49,10.07,1.73,3.65,1.59,7.51,1.06,11.42-2.42,17.74-4.76,35.5-7.16,53.25a21.11,21.11,0,0,1-19.87,18c-5.53.16-11.07.06-16.61.06H381c.81,4.36.22,8.83,2.9,12.57a11.22,11.22,0,0,0,9.73,4.74q50.61,0,101.22,0a10.63,10.63,0,0,1,2.88.26,5.08,5.08,0,0,1,3.56,5.4,5.21,5.21,0,0,1-5.33,4.59c-3.71.07-7.42,0-11.13,0H483c3.2,11.35,1.21,18.86-6.27,24.09a18.81,18.81,0,0,1-21.67-.09c-7.42-5.29-9.41-12.94-6.17-23.9H422.47c3.74,10,1.82,18.49-7.27,24.55a18.83,18.83,0,0,1-28.27-12.17,19.29,19.29,0,0,1,1.77-12.85,22.12,22.12,0,0,1-14.34-10.48c-2.22-3.69-2.57-7.86-3.12-12l-5.73-42.91-5.61-42.23c-.92-7-1.79-13.92-2.82-20.86a17.13,17.13,0,0,0-1.64-4.83c-1.31-2.69-3.26-4.41-6.62-4a46.87,46.87,0,0,1-6.16,0c-2.94,0-5-1.5-5.58-4.06-.57-2.39.67-4.59,3.29-5.89a1.8,1.8,0,0,0,.36-.32h12.33c2.26,1.15,4.76,2,6.71,3.52,4.2,3.3,6.37,8,7.31,13.15.64,3.51,1,7.07,1.55,10.71h48.08V157c0-6.27.11-12.55,0-18.81-.08-3.17.93-5.4,3.88-6.66Zm-80.59,37.86c.07.9.09,1.58.18,2.25q4.56,34,9.06,68c.22,1.71.84,1.94,2.34,1.94q38.44-.06,76.89,0c7.88,0,15.76,0,23.64,0a10.72,10.72,0,0,0,10.69-9.2c.49-3,.87-6.1,1.27-9.15,2-15,3.95-30,6-44.95.79-5.84-1.8-8.95-7.72-8.95q-18.06,0-36.13,0c-.56,0-1.11,0-1.69.08v17.22c3,0,5.84,0,8.69,0a5,5,0,0,1,5,3.13,5,5,0,0,1-1.38,5.92q-13.5,13.4-27,26.78c-2.69,2.66-5.52,2.6-8.23-.1q-8.28-8.19-16.53-16.4c-3.53-3.5-7.11-6.95-10.57-10.51a5.06,5.06,0,0,1,2-8.56,11,11,0,0,1,2.88-.25c2.38,0,4.75,0,7.12,0v-17.2ZM450.38,197c-4.94-.53-6.19-2-6.19-7.21V142H427V190.7c0,4-1.61,5.76-5.5,6.22-.14,0-.27.11-.15.06l14.54,14.9ZM396.81,288.1a8.6,8.6,0,1,0,8.48-8.64A8.58,8.58,0,0,0,396.81,288.1Zm69-8.64a8.6,8.6,0,0,0,.07,17.2,8.7,8.7,0,0,0,8.64-8.74A8.61,8.61,0,0,0,465.85,279.46Z"/></svg>