<svg id="Layer_1" data-name="Layer 1" xmlns="http://www.w3.org/2000/svg" width="100" height="100" viewBox="0 0 100 100">
  <defs>
    <style>
      .cls-1 {
        fill: #7ad06d;
      }
    </style>
  </defs>
  <title>whatsapp</title>
  <g>
    <path class="cls-1" d="M47.56-.35A50,50,0,0,0,5.44,72.3L.13,98.07a2,2,0,0,0,2.36,2.28l25.25-6A50,50,0,1,0,47.56-.35ZM77.68,77.28a39.18,39.18,0,0,1-45.1,7.38l-3.52-1.75L13.58,86.58l3.26-15.82-1.73-3.39a39.17,39.17,0,0,1,7.21-45.46A39.15,39.15,0,1,1,77.68,77.28Z"/>
    <path class="cls-1" d="M74.27,60.44l-9.69-2.78A3.59,3.59,0,0,0,61,58.6L58.64,61a3.54,3.54,0,0,1-3.84.81C50.22,60,40.59,51.4,38.12,47.11a3.53,3.53,0,0,1,.28-3.91l2.07-2.68a3.61,3.61,0,0,0,.45-3.66l-4.08-9.22a3.61,3.61,0,0,0-5.64-1.29c-2.7,2.29-5.91,5.76-6.3,9.61-.68,6.78,2.23,15.34,13.23,25.61C50.84,73.44,61,75,67.65,73.4c3.76-.91,6.77-4.56,8.66-7.55A3.6,3.6,0,0,0,74.27,60.44Z"/>
  </g>
</svg>
