<svg id="Capa_1" data-name="Capa 1" xmlns="http://www.w3.org/2000/svg" width="60" height="60" viewBox="0 0 60 60">
  <defs>
    <style>
      .cls-1 {
        fill: #fff;
      }

      .cls-2 {
        fill: #fdcf84;
      }
    </style>
  </defs>
  <title>ticket</title>
  <g>
    <path class="cls-1" d="M48,55H12a4.26,4.26,0,0,1-4.26-4.26V5h0l3.59,3.59L15,5l3.59,3.59L22.14,5l3.6,3.59L29.33,5l3.59,3.59L36.52,5l3.59,3.59L43.7,5V30"/>
    <path class="cls-2" d="M48,55h0a4.27,4.27,0,0,1-4.27-4.26V30h8.53V50.71A4.26,4.26,0,0,1,48,55Z"/>
    <path d="M52.23,29H44.72V5A1,1,0,0,0,43,4.31L40.11,7.19,37.23,4.31a1,1,0,0,0-1.43,0L32.92,7.19,30.05,4.31a1,1,0,0,0-1.44,0L25.74,7.19,22.86,4.31a1,1,0,0,0-1.44,0L18.55,7.19,15.67,4.31a1,1,0,0,0-1.43,0L11.36,7.19,8.49,4.31a1,1,0,0,0-1.43,0,1,1,0,0,0-.3.75V50.71A5.28,5.28,0,0,0,12,56H48a5.28,5.28,0,0,0,5.27-5.28V30A1,1,0,0,0,52.23,29ZM8.79,50.71V7.48l1.85,1.86a1,1,0,0,0,1.44,0L15,6.46l2.87,2.88a1,1,0,0,0,1.44,0l2.87-2.88L25,9.34a1,1,0,0,0,1.43,0l2.88-2.88L32.2,9.34a1,1,0,0,0,1.44,0l2.88-2.88,2.87,2.88a1,1,0,0,0,1.44,0l1.86-1.86V50.71A5.28,5.28,0,0,0,43.81,54H12A3.25,3.25,0,0,1,8.79,50.71Zm42.42,0A3.25,3.25,0,0,1,48,54h0a3.26,3.26,0,0,1-3.25-3.25V31h6.49V50.71Z"/>
    <path d="M25.74,25.3a1.71,1.71,0,0,1-1.83-1.57,1,1,0,0,0-2,0,3.66,3.66,0,0,0,2.84,3.47V28a1,1,0,0,0,2,0V27.2a3.65,3.65,0,0,0,2.84-3.47,3.73,3.73,0,0,0-3.85-3.59,1.71,1.71,0,0,1-1.83-1.57,1.85,1.85,0,0,1,3.65,0,1,1,0,1,0,2,0,3.64,3.64,0,0,0-2.84-3.46v-.69a1,1,0,1,0-2,0v.69a3.65,3.65,0,0,0-2.84,3.46,3.74,3.74,0,0,0,3.86,3.6,1.71,1.71,0,0,1,1.82,1.56A1.71,1.71,0,0,1,25.74,25.3Z"/>
    <path d="M34,22.17h2a1,1,0,1,0,0-2H34a1,1,0,1,0,0,2Z"/>
    <path d="M17.52,20.14h-2a1,1,0,1,0,0,2h2a1,1,0,0,0,0-2Z"/>
    <path d="M36.45,31.42H20.37a1,1,0,1,0,0,2H36.45a1,1,0,0,0,0-2Z"/>
    <path d="M15,31.42a1,1,0,0,0-1,1,1,1,0,0,0,.3.71,1,1,0,0,0,1.43,0,1,1,0,0,0,.3-.71,1,1,0,0,0-1-1Z"/>
    <path d="M36.45,38.12H20.37a1,1,0,1,0,0,2H36.45a1,1,0,0,0,0-2Z"/>
    <path d="M15,38.12a1,1,0,0,0-1,1,1,1,0,0,0,.3.71,1,1,0,0,0,1.43,0,1,1,0,0,0,.3-.71,1,1,0,0,0-1-1Z"/>
    <path d="M36.45,44.82H20.37a1,1,0,1,0,0,2H36.45a1,1,0,0,0,0-2Z"/>
    <path d="M15,44.82a1,1,0,1,0,.72.3A1,1,0,0,0,15,44.82Z"/>
  </g>
</svg>
