<svg xmlns="http://www.w3.org/2000/svg" width="279" height="108" viewBox="0 0 279 108">
  <g id="Group_283" data-name="Group 283" transform="translate(-822 -2737)">
    <g id="Objeto_inteligente_vectorial" data-name="Objeto inteligente vectorial" transform="translate(814.797 2669.44)">
      <g id="Group_64" data-name="Group 64">
        <g id="Group_60" data-name="Group 60">
          <path id="Path_103" data-name="Path 103" d="M136.368,136.047c-10.223,7.547-25.046,11.562-37.809,11.562a68.4,68.4,0,0,1-46.186-17.627c-.957-.864-.1-2.045,1.047-1.375a92.931,92.931,0,0,0,46.213,12.267,91.922,91.922,0,0,0,35.249-7.215C136.61,132.924,138.06,134.8,136.368,136.047Z" fill="#f48200" fill-rule="evenodd"/>
          <path id="Path_104" data-name="Path 104" d="M140.622,131.188c-1.308-1.676-8.644-.794-11.94-.4-1,.119-1.153-.752-.252-1.385,5.852-4.113,15.441-2.925,16.555-1.549s-.294,11.006-5.779,15.6c-.843.705-1.645.328-1.271-.6C139.169,139.766,141.931,132.863,140.622,131.188Z" fill="#f48200" fill-rule="evenodd"/>
        </g>
        <g id="Group_63" data-name="Group 63">
          <path id="Path_105" data-name="Path 105" d="M128.915,100.356v-4a.987.987,0,0,1,1.012-1.012l17.9,0a1,1,0,0,1,1.034,1.01l0,3.427a5.59,5.59,0,0,1-1.348,2.516l-9.272,13.244a19.844,19.844,0,0,1,10.21,2.193,1.829,1.829,0,0,1,.949,1.56v4.262c0,.588-.642,1.268-1.317.914a20.612,20.612,0,0,0-18.914.035c-.622.332-1.274-.338-1.274-.926v-4.053a4.821,4.821,0,0,1,.666-2.747L139.3,101.363h-9.354A1,1,0,0,1,128.915,100.356Z" fill="#100f0c" fill-rule="evenodd"/>
          <path id="Path_106" data-name="Path 106" d="M63.616,125.311H58.17a1.027,1.027,0,0,1-.974-.921l0-27.962a1.028,1.028,0,0,1,1.051-1.007h5.072a1.027,1.027,0,0,1,.991.939v3.651h.1c1.322-3.531,3.813-5.178,7.168-5.178,3.406,0,5.541,1.647,7.067,5.178A8.041,8.041,0,0,1,92.476,97.89c1.729,2.354,1.373,5.767,1.373,8.768l0,17.646a1.027,1.027,0,0,1-1.05,1.007h-5.44a1.023,1.023,0,0,1-.978-1V109.483a35.747,35.747,0,0,0-.153-5.237c-.406-1.883-1.626-2.413-3.2-2.413a3.613,3.613,0,0,0-3.254,2.3,16.922,16.922,0,0,0-.508,5.354V124.3a1.027,1.027,0,0,1-1.05,1.007h-5.44a1.023,1.023,0,0,1-.978-1l-.005-14.824c0-3.118.509-7.708-3.355-7.708-3.914,0-3.762,4.472-3.762,7.708l0,14.821A1.026,1.026,0,0,1,63.616,125.311Z" fill="#100f0c" fill-rule="evenodd"/>
          <path id="Path_107" data-name="Path 107" d="M164.272,94.831c8.083,0,12.455,6.944,12.455,15.77,0,8.532-4.829,15.3-12.455,15.3-7.93,0-12.253-6.944-12.253-15.594C152.019,101.6,156.392,94.831,164.272,94.831Zm.05,5.708c-4.016,0-4.269,5.472-4.269,8.885s-.051,10.709,4.219,10.709c4.22,0,4.423-5.884,4.423-9.473a25.88,25.88,0,0,0-.813-7.414A3.411,3.411,0,0,0,164.322,100.539Z" fill="#100f0c" fill-rule="evenodd"/>
          <path id="Path_108" data-name="Path 108" d="M187.209,125.311h-5.426a1.023,1.023,0,0,1-.977-1L180.8,96.333a1.031,1.031,0,0,1,1.045-.913H186.9a1.034,1.034,0,0,1,.966.783v4.277h.1c1.526-3.825,3.659-5.649,7.421-5.649a7.14,7.14,0,0,1,6.355,3.295c1.425,2.237,1.425,6,1.425,8.709V124.43a1.036,1.036,0,0,1-1.044.881h-5.459a1.027,1.027,0,0,1-.97-.881V109.248c0-3.06.355-7.532-3.406-7.532a3.562,3.562,0,0,0-3.151,2.236,12.427,12.427,0,0,0-.865,5.3V124.3A1.043,1.043,0,0,1,187.209,125.311Z" fill="#100f0c" fill-rule="evenodd"/>
          <g id="Group_62" data-name="Group 62">
            <path id="Path_109" data-name="Path 109" d="M206.172,124.07a.975.975,0,1,1,.975.925A.95.95,0,0,1,206.172,124.07Z" fill="#100f0c" fill-rule="evenodd"/>
            <path id="Path_110" data-name="Path 110" d="M241,124.07a.974.974,0,1,1,.974.925A.95.95,0,0,1,241,124.07Z" fill="#100f0c" fill-rule="evenodd"/>
            <path id="Path_111" data-name="Path 111" d="M227.125,124.879a.372.372,0,0,1-.369-.365V114.358a.372.372,0,0,1,.355-.334h.726a.373.373,0,0,1,.379.334v1.481a3.111,3.111,0,0,1,2.694-2.093h.149a2.747,2.747,0,0,1,2.584,2.334,3.269,3.269,0,0,1,2.934-2.334h.151a2.742,2.742,0,0,1,2.362,1.56,7.021,7.021,0,0,1,.442,3.1v6.11a.372.372,0,0,1-.355.365h-.868a.377.377,0,0,1-.366-.316V118.4a5.3,5.3,0,0,0-.258-2.158,1.787,1.787,0,0,0-1.5-1.131,2.291,2.291,0,0,0-1.733,1.216,4.62,4.62,0,0,0-.517,2.692v5.543a.377.377,0,0,1-.352.312h-.865a.372.372,0,0,1-.369-.365l0-6.516a4.132,4.132,0,0,0-.313-1.838,1.85,1.85,0,0,0-1.492-1.045,2.307,2.307,0,0,0-1.626,1.067,4.311,4.311,0,0,0-.573,2.479v5.853a.371.371,0,0,1-.354.365Z" fill="#100f0c"/>
            <path id="Path_112" data-name="Path 112" d="M244.908,124.879a.372.372,0,0,1-.369-.365V114.358a.371.371,0,0,1,.353-.334h.727a.376.376,0,0,1,.38.334v1.481a3.11,3.11,0,0,1,2.694-2.093h.148a2.747,2.747,0,0,1,2.584,2.334,3.27,3.27,0,0,1,2.934-2.334h.15a2.742,2.742,0,0,1,2.363,1.56,7.01,7.01,0,0,1,.443,3.1v6.11a.371.371,0,0,1-.355.365h-.87a.375.375,0,0,1-.365-.316V118.4a5.271,5.271,0,0,0-.259-2.158,1.783,1.783,0,0,0-1.5-1.131,2.291,2.291,0,0,0-1.733,1.216,4.623,4.623,0,0,0-.517,2.692v5.543a.376.376,0,0,1-.351.312h-.865a.373.373,0,0,1-.37-.365l0-6.516a4.143,4.143,0,0,0-.314-1.838,1.847,1.847,0,0,0-1.492-1.045,2.309,2.309,0,0,0-1.627,1.067,4.32,4.32,0,0,0-.572,2.479v5.853a.372.372,0,0,1-.355.365Z" fill="#100f0c"/>
            <g id="Group_61" data-name="Group 61">
              <path id="Path_113" data-name="Path 113" d="M264.852,113.913h2l-3.327,5.481,3.289,5.5h-1.977l-2.3-3.843-2.319,3.843h-2l3.308-5.5-3.251-5.481h2l2.262,3.828Z" fill="#100f0c"/>
            </g>
            <path id="Path_114" data-name="Path 114" d="M221.165,125.093c-2.8,0-4.06-2.864-4.06-5.726,0-3.013,1.477-5.62,4.3-5.62h.149c2.751,0,4.117,2.778,4.117,5.641,0,3.035-1.514,5.705-4.357,5.705h-.15Zm.208-1.391a2.363,2.363,0,0,0,2.082-1.558,6.744,6.744,0,0,0,.463-2.778,6.207,6.207,0,0,0-.591-2.971,2.134,2.134,0,0,0-4,.256,7.083,7.083,0,0,0-.461,2.714,7.263,7.263,0,0,0,.535,2.97A2.337,2.337,0,0,0,221.372,123.7Z" fill="#100f0c"/>
            <path id="Path_115" data-name="Path 115" d="M212.4,123.66c1.26-.04,1.92-1.05,2.2-2.359a.382.382,0,0,1,.362-.289l.833,0a.359.359,0,0,1,.363.344c-.385,2.226-1.729,3.74-3.645,3.74h-.149c-2.787,0-3.987-2.8-3.987-5.641,0-2.82,1.218-5.705,4.006-5.705h.149c1.934,0,3.316,1.491,3.615,3.719a.366.366,0,0,1-.337.333l-.874-.01a.408.408,0,0,1-.328-.359c-.21-1.244-.924-2.233-2.115-2.272-1.9.061-2.434,2.394-2.434,4.187C210.052,121.075,210.5,123.6,212.4,123.66Z" fill="#100f0c"/>
          </g>
          <path id="Path_116" data-name="Path 116" d="M114.645,111.957c0,2.123.05,3.892-1.02,5.78a4.421,4.421,0,0,1-3.77,2.477c-2.088,0-3.311-1.593-3.311-3.951,0-4.641,4.161-5.484,8.1-5.484Zm5.49,13.284a1.129,1.129,0,0,1-1.287.127,13.308,13.308,0,0,1-3.121-3.631c-2.99,3.046-5.108,3.96-8.979,3.96-4.585,0-8.151-2.831-8.151-8.491a9.254,9.254,0,0,1,5.808-8.9c2.955-1.3,7.082-1.533,10.241-1.887v-.708c0-1.3.1-2.831-.662-3.951a3.638,3.638,0,0,0-3.057-1.416,4.148,4.148,0,0,0-4.378,3.273,1.149,1.149,0,0,1-.946,1l-5.279-.571a.959.959,0,0,1-.812-1.139c1.213-6.406,7-8.343,12.179-8.343,2.649,0,6.113.708,8.2,2.714,2.649,2.477,2.395,5.78,2.395,9.376v8.488c0,2.553,1.06,3.674,2.055,5.05a1.026,1.026,0,0,1-.017,1.447c-1.113.933-3.089,2.651-4.177,3.619Z" fill="#100f0c" fill-rule="evenodd"/>
          <path id="Path_117" data-name="Path 117" d="M43.251,111.957c0,2.123.051,3.892-1.019,5.78a4.421,4.421,0,0,1-3.77,2.477c-2.089,0-3.311-1.593-3.311-3.951,0-4.641,4.161-5.484,8.1-5.484Zm5.491,13.284a1.128,1.128,0,0,1-1.286.127,13.3,13.3,0,0,1-3.122-3.631c-2.99,3.046-5.107,3.96-8.979,3.96-4.586,0-8.151-2.831-8.151-8.491a9.254,9.254,0,0,1,5.808-8.9c2.955-1.3,7.082-1.533,10.24-1.887v-.708c0-1.3.1-2.831-.662-3.951a3.637,3.637,0,0,0-3.056-1.416,4.148,4.148,0,0,0-4.378,3.273,1.15,1.15,0,0,1-.946,1l-5.278-.571a.959.959,0,0,1-.813-1.139c1.213-6.406,7-8.343,12.179-8.343,2.649,0,6.113.708,8.2,2.714,2.649,2.477,2.394,5.78,2.394,9.376v8.488c0,2.553,1.06,3.674,2.055,5.05a1.027,1.027,0,0,1-.017,1.447c-1.112.933-3.089,2.651-4.177,3.619Z" fill="#100f0c" fill-rule="evenodd"/>
        </g>
      </g>
    </g>
    <g id="Rectangle_58" data-name="Rectangle 58" transform="translate(822 2737)" fill="none" stroke="#707070" stroke-width="1" opacity="0">
      <rect width="279" height="108" stroke="none"/>
      <rect x="0.5" y="0.5" width="278" height="107" fill="none"/>
    </g>
  </g>
</svg>
