<svg xmlns="http://www.w3.org/2000/svg" width="279" height="108" viewBox="0 0 279 108">
  <g id="Group_281" data-name="Group 281" transform="translate(-148 -2629)">
    <g id="cornersho" transform="translate(1.421 2461.307)">
      <path id="Path_102" data-name="Path 102" d="M410.123,233.168a11.3,11.3,0,0,1-8.481,3.64c-3.926,0-6.858-1.713-7.643-4.068v12.954h-5.706V211.757H394v3.533c.785-2.409,3.717-4.068,7.643-4.068a11.084,11.084,0,0,1,8.481,3.693,12.67,12.67,0,0,1,3.455,9.1A12.8,12.8,0,0,1,410.123,233.168Zm-4.241-14.506a6.638,6.638,0,0,0-5.026-2.141,7.274,7.274,0,0,0-5.235,2.141,7.888,7.888,0,0,0,0,10.706,7.274,7.274,0,0,0,5.235,2.141,6.638,6.638,0,0,0,5.026-2.141,7.393,7.393,0,0,0,2.042-5.353A7.48,7.48,0,0,0,405.883,218.662Zm-34.709,18.36a12.776,12.776,0,0,1-9.266-3.747,13.13,13.13,0,0,1,0-18.521,13.331,13.331,0,0,1,18.533,0,13.008,13.008,0,0,1-9.266,22.268Zm5.288-18.414a7,7,0,0,0-5.288-2.248,7.109,7.109,0,0,0-5.34,2.248,7.689,7.689,0,0,0-2.094,5.46,7.912,7.912,0,0,0,2.094,5.513,7.53,7.53,0,0,0,10.627,0,7.726,7.726,0,0,0,2.146-5.513A7.511,7.511,0,0,0,376.461,218.608Zm-22.93,17.932c-3.769,0-5.6-2.141-5.6-6.423v-8.19c0-3.372-1.78-5.46-4.816-5.46-3.089,0-5.288,2.355-5.288,5.674v14.131h-5.654V202.336h5.654v12.847c1.1-2.355,3.717-3.908,6.963-3.908,5.5,0,8.743,3.747,8.743,9.849v7.762c0,1.873.314,2.569,1.623,2.569a3.489,3.489,0,0,0,.785-.107v4.925A8.553,8.553,0,0,1,353.531,236.54ZM319.241,220.8c.733.214,2.042.7,2.984,1.017,4.4,1.606,6.439,3.8,6.439,7.28,0,4.55-3.35,7.762-9.842,7.762-4.816,0-8.376-1.873-9.895-4.978l3.665-3.158a7.3,7.3,0,0,0,6.335,3.051c2.984,0,4.293-1.178,4.293-2.676a2.32,2.32,0,0,0-1.361-1.927,11.065,11.065,0,0,0-2.251-.91c-.733-.268-2.146-.7-2.932-1.017-3.874-1.392-5.916-3.426-5.916-6.905a6.471,6.471,0,0,1,2.408-5.353,10.154,10.154,0,0,1,13.768,1.606l-3.193,3.479a5.594,5.594,0,0,0-4.659-2.034c-1.78,0-2.879.856-2.879,2.195a1.926,1.926,0,0,0,1.1,1.713A9.63,9.63,0,0,0,319.241,220.8Zm-13.873-3.961c-3.926,0-6.439,2.516-6.439,6.584v12.9h-5.654V211.757h5.654v3.64c1.152-2.569,3.769-4.122,7.12-4.122a7.93,7.93,0,0,1,1.728.161v5.62A16.815,16.815,0,0,0,305.368,216.842Zm-34.657,8.672c.209,3.908,2.984,6.423,7.225,6.423a8.558,8.558,0,0,0,6.439-2.837l3.4,3.426a13.051,13.051,0,0,1-10.052,4.389,12,12,0,0,1-12.669-12.686v-.214a12.825,12.825,0,0,1,3.508-9.367,12.047,12.047,0,0,1,9-3.533,11,11,0,0,1,8.481,3.533,12.346,12.346,0,0,1,3.35,8.832c0,.749-.052,1.392-.1,2.034Zm11.151-7.869a6.086,6.086,0,0,0-4.241-1.606,7.173,7.173,0,0,0-4.607,1.552,5.352,5.352,0,0,0-2.146,3.8h12.774A4.914,4.914,0,0,0,281.862,217.645ZM260.4,236.54c-3.769,0-5.6-2.141-5.6-6.423v-8.19c0-3.372-1.832-5.46-5.026-5.46s-5.392,2.355-5.392,5.674v14.131h-5.654V211.757h5.654v3.479c1.152-2.409,3.822-4.015,7.172-4.015,5.654,0,8.952,3.747,8.952,9.849v7.762c0,1.873.314,2.569,1.623,2.569a3.488,3.488,0,0,0,.785-.107v4.925A8.47,8.47,0,0,1,260.4,236.54Zm-28.113-19.7c-3.926,0-6.439,2.516-6.439,6.584v12.9h-5.654V211.757h5.654v3.64c1.152-2.569,3.769-4.122,7.12-4.122a7.93,7.93,0,0,1,1.728.161v5.62A16.815,16.815,0,0,0,232.285,216.842Zm-29.16,20.18a12.776,12.776,0,0,1-9.266-3.747,13.13,13.13,0,0,1,0-18.521,13.331,13.331,0,0,1,18.533,0,13.008,13.008,0,0,1-9.266,22.268Zm5.235-18.414a7,7,0,0,0-5.288-2.248,7.109,7.109,0,0,0-5.34,2.248,7.689,7.689,0,0,0-2.094,5.46,7.912,7.912,0,0,0,2.094,5.513,7.53,7.53,0,0,0,10.627,0,7.726,7.726,0,0,0,2.146-5.513A7.307,7.307,0,0,0,208.36,218.608ZM175.169,231.4a11.236,11.236,0,0,0,9.162-4.229l3.979,3.533a16.993,16.993,0,0,1-13.14,6.156,17.351,17.351,0,0,1-12.512-4.978,17.612,17.612,0,0,1,12.512-30.19,16.593,16.593,0,0,1,13.14,6.1l-4.083,3.64a11.921,11.921,0,0,0-17.433-.642,12.759,12.759,0,0,0,0,17.236A11.354,11.354,0,0,0,175.169,231.4Z"/>
    </g>
    <g id="Rectangle_56" data-name="Rectangle 56" transform="translate(148 2629)" fill="none" stroke="#707070" stroke-width="1" opacity="0">
      <rect width="279" height="108" stroke="none"/>
      <rect x="0.5" y="0.5" width="278" height="107" fill="none"/>
    </g>
  </g>
</svg>
